<svg width="104" height="105" viewBox="0 0 104 105" fill="none" xmlns="http://www.w3.org/2000/svg">
<path d="M35.1758 9.58411L36.8233 12.4992C37.9559 14.5034 40.1482 15.4279 42.2651 14.9527C58.6325 10.9912 76.2487 18.1031 84.8979 33.4075C95.4006 51.9915 88.8379 75.4122 70.5774 85.7321C52.1361 96.1542 28.8675 89.5926 18.3648 71.0086C9.71548 55.7042 12.5294 37.0464 24.3662 25.0683C25.8653 23.4999 26.385 21.0427 25.2523 19.0386L23.6048 16.1234C21.9573 13.2083 18.0098 12.5546 15.5289 14.9182C-0.933238 30.9526 -5.12534 56.8798 6.99971 77.9124C21.1063 102.873 52.5012 111.573 77.1673 97.3927C101.936 83.3944 110.576 51.829 96.4689 26.8682C84.6276 5.91567 60.176 -3.58318 37.9477 2.24828C34.8239 3.05214 33.5283 6.66897 35.1758 9.58411Z" fill="#31B2C7" fill-opacity="0.15"/>
</svg>
