<svg width="151" height="245" viewBox="0 0 151 245" fill="none" xmlns="http://www.w3.org/2000/svg">
<circle cx="36.616" cy="225.352" r="13.5326" transform="rotate(-136.815 36.616 225.352)" fill="#31B2C7" fill-opacity="0.08"/>
<circle cx="68.1035" cy="191.803" r="13.5326" transform="rotate(-136.815 68.1035 191.803)" fill="#31B2C7" fill-opacity="0.08"/>
<circle cx="99.5913" cy="158.254" r="13.5326" transform="rotate(-136.815 99.5913 158.254)" fill="#31B2C7" fill-opacity="0.08"/>
<circle cx="131.08" cy="124.705" r="13.5326" transform="rotate(-136.815 131.08 124.705)" fill="#31B2C7" fill-opacity="0.08"/>
<circle cx="-0.879635" cy="190.16" r="13.5326" transform="rotate(-136.815 -0.879635 190.16)" fill="#31B2C7" fill-opacity="0.08"/>
<circle cx="30.6079" cy="156.611" r="13.5326" transform="rotate(-136.815 30.6079 156.611)" fill="#31B2C7" fill-opacity="0.08"/>
<circle cx="62.0955" cy="123.062" r="13.5326" transform="rotate(-136.815 62.0955 123.062)" fill="#31B2C7" fill-opacity="0.08"/>
<circle cx="93.5833" cy="89.5132" r="13.5326" transform="rotate(-136.815 93.5833 89.5132)" fill="#31B2C7" fill-opacity="0.08"/>
<circle cx="-6.88757" cy="121.419" r="13.5326" transform="rotate(-136.815 -6.88757 121.419)" fill="#31B2C7" fill-opacity="0.08"/>
<circle cx="24.6001" cy="87.8699" r="13.5326" transform="rotate(-136.815 24.6001 87.8699)" fill="#31B2C7" fill-opacity="0.08"/>
<circle cx="56.0877" cy="54.3208" r="13.5326" transform="rotate(-136.815 56.0877 54.3208)" fill="#31B2C7" fill-opacity="0.08"/>
<circle cx="-12.8957" cy="52.6775" r="13.5326" transform="rotate(-136.815 -12.8957 52.6775)" fill="#31B2C7" fill-opacity="0.08"/>
<circle cx="18.5918" cy="19.1287" r="13.5326" transform="rotate(-136.815 18.5918 19.1287)" fill="#31B2C7" fill-opacity="0.08"/>
</svg>
