<svg width="98" height="97" viewBox="0 0 98 97" fill="none" xmlns="http://www.w3.org/2000/svg">
<path d="M42.6766 92.0833L42.6766 88.908C42.6766 86.7251 41.2936 84.939 39.3178 84.3436C23.9068 79.9777 12.6449 65.8876 12.6449 49.2175C12.6449 28.9754 29.0438 12.7023 48.9991 12.7023C69.1519 12.7023 85.3532 28.9754 85.3532 49.2176C85.3532 65.8876 74.2889 79.9777 58.8779 84.3436C56.9021 84.939 55.3215 86.7251 55.3215 88.908L55.3215 92.0833C55.3215 95.2585 58.2852 97.64 61.4464 96.8461C82.5871 91.2895 98.1957 71.8411 97.9981 48.8207C97.9982 21.6327 76.0671 -0.197107 48.9991 0.00134612C21.931 0.00134375 -1.07527e-06 22.0296 -3.45212e-06 49.2175C-5.44729e-06 72.0396 15.8061 91.2895 36.9469 96.8461C39.9105 97.64 42.6766 95.2585 42.6766 92.0833Z" fill="#919191" fill-opacity="0.15"/>
</svg>
