<svg width="50" height="50" viewBox="0 0 50 50" fill="none" xmlns="http://www.w3.org/2000/svg">
<path fill-rule="evenodd" clip-rule="evenodd" d="M32.607 7.91576C28.9255 6.27536 24.8123 5.86898 20.881 6.75722C16.9496 7.64546 13.4107 9.78073 10.792 12.8446C8.17334 15.9084 6.61522 19.7367 6.35003 23.7584C6.08484 27.7801 7.12679 31.7798 9.32048 35.161C11.5142 38.5422 14.7421 41.1236 18.5227 42.5204C22.3034 43.9172 26.4344 44.0544 30.2994 42.9116C34.1645 41.7688 37.5566 39.4073 39.9698 36.1792C42.3831 32.951 43.6882 29.0293 43.6905 24.9989V23.0834C43.6905 21.8999 44.6499 20.9406 45.8333 20.9406C47.0168 20.9406 47.9762 21.8999 47.9762 23.0834V25.0001C47.9734 29.9547 46.369 34.7769 43.4024 38.7453C40.4358 42.7136 36.2659 45.6166 31.5146 47.0215C26.7633 48.4263 21.6851 48.2576 17.0375 46.5405C12.3899 44.8235 8.42187 41.6501 5.72517 37.4936C3.02847 33.3371 1.7476 28.4203 2.0736 23.4764C2.3996 18.5325 4.315 13.8264 7.53413 10.0601C10.7533 6.29368 15.1036 3.66879 19.9365 2.57688C24.7693 1.48497 29.8256 1.98453 34.3513 4.00107C35.4323 4.48274 35.9182 5.74954 35.4365 6.83056C34.9548 7.91157 33.688 8.39743 32.607 7.91576Z" fill="#45D000"/>
<path fill-rule="evenodd" clip-rule="evenodd" d="M47.3478 6.8173C48.1851 7.65372 48.1857 9.0105 47.3493 9.84776L26.516 30.7019C26.1142 31.1041 25.569 31.3302 25.0005 31.3303C24.432 31.3305 23.8868 31.1047 23.4848 30.7027L17.2348 24.4527C16.3979 23.6158 16.3979 22.2591 17.2348 21.4222C18.0716 20.5854 19.4284 20.5854 20.2652 21.4222L24.9992 26.1562L44.3174 6.81882C45.1538 5.98156 46.5106 5.98088 47.3478 6.8173Z" fill="#45D000"/>
</svg>
