<svg width="196" height="194" viewBox="0 0 196 194" fill="none" xmlns="http://www.w3.org/2000/svg">
<path d="M110.647 9.83342V16.1839C110.647 20.5499 113.413 24.122 117.364 25.3127C148.186 34.0446 170.71 62.2249 170.71 95.5649C170.71 136.049 137.912 168.595 98.0019 168.595C57.6962 168.595 25.2936 136.049 25.2936 95.5649C25.2936 62.2249 47.4222 34.0446 78.2442 25.3127C82.1957 24.122 85.3569 20.5499 85.3569 16.1839V9.83342C85.3569 3.48294 79.4296 -1.27992 73.1072 0.307704C30.8257 11.421 -0.391444 50.3177 0.0037096 96.3587C0.0037096 150.735 43.8658 194.394 98.0019 193.997C152.138 193.997 196 149.941 196 95.5649C196 49.9208 164.388 11.421 122.106 0.307704C116.179 -1.27992 110.647 3.48294 110.647 9.83342Z" fill="#919191" fill-opacity="0.15"/>
</svg>
