<svg width="129" height="129" viewBox="0 0 129 129" fill="none" xmlns="http://www.w3.org/2000/svg">
<path d="M113.039 34.3648L109.861 37.0646C107.677 38.9207 107.061 41.8189 108.14 44.2959C116.831 63.3803 112.274 86.5942 95.5912 100.768C75.3334 117.979 45.1503 115.458 28.2388 95.5525C11.16 75.4503 13.7156 45.4534 33.9733 28.2424C50.6562 14.0686 74.1339 13.1248 91.5635 24.7849C93.8337 26.2495 96.9607 26.3076 99.1453 24.4515L102.323 21.7517C105.501 19.0519 105.372 14.0709 101.899 11.5925C78.4219 -4.77046 45.7308 -3.80372 22.86 15.9667C-4.34899 39.0835 -7.6098 79.5203 15.5281 106.352C38.4673 133.352 79.0984 136.498 106.307 113.381C129.147 93.9765 135.017 61.8427 122.661 36.0305C120.944 32.3994 116.217 31.6651 113.039 34.3648Z" fill="#31B2C7" fill-opacity="0.3"/>
</svg>
