<svg width="30" height="30" viewBox="0 0 30 30" fill="none" xmlns="http://www.w3.org/2000/svg">
<g clip-path="url(#clip0_1012_4297)">
<path fill-rule="evenodd" clip-rule="evenodd" d="M14.8524 30C23.0494 30 29.6943 23.2843 29.6943 15C29.6943 6.71573 23.0494 0 14.8524 0C6.65545 0 0.010498 6.71573 0.010498 15C0.010498 23.2843 6.65545 30 14.8524 30ZM22.7859 21.3491V19.1813C22.7953 18.8269 22.6646 18.4817 22.4184 18.2112C22.1723 17.9407 21.828 17.7639 21.451 17.7144C20.7059 17.6229 19.9743 17.4532 19.2702 17.2086C18.9924 17.1114 18.6905 17.0903 18.4003 17.148C18.11 17.2056 17.8436 17.3395 17.6326 17.5338L16.647 18.4515C14.704 17.4228 13.0952 15.925 11.9904 14.1159L12.976 13.1982C13.1847 13.0017 13.3285 12.7537 13.3904 12.4835C13.4523 12.2133 13.4297 11.9322 13.3253 11.6735C13.0625 11.018 12.8803 10.3368 12.782 9.64305C12.7293 9.29581 12.5427 8.97826 12.2572 8.74959C11.9716 8.52092 11.6064 8.39674 11.2298 8.40019H8.90151C8.68602 8.40038 8.47293 8.44234 8.27581 8.52341C8.07869 8.60448 7.90186 8.72287 7.75658 8.87105C7.6113 9.01923 7.50075 9.19395 7.43197 9.38409C7.36319 9.57423 7.33768 9.77562 7.35707 9.97545C7.61182 12.209 8.42807 14.3552 9.73969 16.2403C10.9313 17.9862 12.5211 19.4665 14.3963 20.5759C16.4118 21.7928 18.7058 22.5526 21.094 22.7943C21.3093 22.8124 21.5262 22.7884 21.731 22.7239C21.9357 22.6595 22.1238 22.5559 22.283 22.4199C22.4423 22.2838 22.5693 22.1183 22.6559 21.9339C22.7425 21.7495 22.7868 21.5503 22.7859 21.3491Z" fill="#31B2C7"/>
</g>
<defs>
<clipPath id="clip0_1012_4297">
<rect width="30" height="30" fill="white"/>
</clipPath>
</defs>
</svg>
