<svg width="18" height="18" viewBox="0 0 18 18" fill="none" xmlns="http://www.w3.org/2000/svg">
<path fill-rule="evenodd" clip-rule="evenodd" d="M7.7914 0.0203756C6.64854 0.158227 5.7089 0.436196 4.75905 0.917407C2.13745 2.24561 0.359404 4.80057 0.0402246 7.69807C-0.0134082 8.18475 -0.0134082 9.14803 0.0402246 9.63471C0.254404 11.5792 1.13163 13.3933 2.53749 14.7992C3.85472 16.1164 5.41194 16.9133 7.32265 17.248C7.62257 17.3005 7.93546 17.3165 8.6703 17.3169C9.49964 17.3174 9.69409 17.3055 10.1277 17.2277C11.9664 16.8975 13.5089 16.0965 14.8031 14.7998C16.108 13.4924 16.9141 11.9312 17.2439 10.0726C17.3325 9.57327 17.3659 8.33483 17.3062 7.76373C16.9992 4.83045 15.2275 2.25815 12.5957 0.924594C11.3041 0.27018 10.0905 -0.0117728 8.61788 0.000375674C8.22776 0.0035788 7.85585 0.0126021 7.7914 0.0203756ZM11.1312 4.19374V5.1117H10.4652C9.47651 5.1117 9.47108 5.11713 9.47108 6.1078V6.7328L10.321 6.74334L11.171 6.75385L11.1503 6.89959C11.1276 7.05999 10.975 8.53151 10.975 8.59049C10.975 8.61229 10.6645 8.62733 10.2133 8.62733H9.45155V11.3031V13.9789H8.33827H7.22499V11.3031V8.62733H6.69765H6.1703V7.68983V6.75233H6.69292H7.21554L7.23526 5.90272C7.25667 4.97846 7.28925 4.78827 7.50269 4.34104C7.66026 4.01088 7.99202 3.67612 8.31874 3.51752C8.76894 3.29901 8.89933 3.28116 10.0668 3.27834L11.1312 3.27577V4.19374Z" fill="white"/>
</svg>
