<svg width="99" height="62" viewBox="0 0 99 62" fill="none" xmlns="http://www.w3.org/2000/svg">
<g clip-path="url(#clip0_32_586)">
<g clip-path="url(#clip1_32_586)">
<g clip-path="url(#clip2_32_586)">
<path d="M25.0085 0C28.1243 0 31.0049 0.839134 33.6503 2.5174C36.2957 4.20746 38.4122 6.50046 39.9993 9.39613C40.6478 10.5789 41.1637 12.2477 41.5472 13.5487H31.9118C31.1747 12.2748 30.2728 10.7953 29.2058 9.96342C27.9361 8.99427 26.537 8.50956 25.0085 8.50981H8.69483V13.5487H0.141205V4.52073C0.141205 3.22074 0.582182 2.14515 1.46389 1.29422C2.3456 0.43149 3.40384 0 4.63863 0L25.0085 0ZM8.69483 50.9897C8.69483 52.2897 8.29505 53.3653 7.4955 54.2162C6.70768 55.0789 5.66716 55.5104 4.37394 55.5104C3.13941 55.5104 2.12835 55.0789 1.34054 54.2162C0.540982 53.3653 0.141205 52.2897 0.141205 50.9897V41.9617H8.69483V50.9897Z" fill="#103756"/>
<g clip-path="url(#clip3_32_586)">
<g clip-path="url(#clip4_32_586)">
<g clip-path="url(#clip5_32_586)">
<g clip-path="url(#clip6_32_586)">
<g clip-path="url(#clip7_32_586)">
<g clip-path="url(#clip8_32_586)">
<g clip-path="url(#clip9_32_586)">
<path d="M1.5252 18.5129H7.88547C8.85832 18.5129 9.75776 18.7749 10.5838 19.2989C11.4098 19.8266 12.0706 20.5426 12.5662 21.4467C13.0618 22.3509 13.3096 23.3657 13.3096 24.4913C13.3096 25.6168 13.0618 26.6354 12.5662 27.5469C12.0706 28.4621 11.4098 29.191 10.5838 29.7335C9.75776 30.2796 8.85832 30.5527 7.88547 30.5527H2.57148L2.79175 30.1099V36.4758C2.79175 36.8817 2.66693 37.2175 2.41729 37.4833C2.17132 37.7527 1.84643 37.8874 1.4426 37.8874C1.05713 37.8874 0.741411 37.7527 0.495444 37.4833C0.245806 37.2175 0.120987 36.8817 0.120987 36.4758V19.9244C0.120987 19.5185 0.258655 19.1827 0.533991 18.917C0.809327 18.6476 1.13973 18.5129 1.5252 18.5129ZM2.54395 27.8957H7.88547C8.36272 27.8957 8.79958 27.7388 9.19607 27.4251C9.58888 27.1115 9.91011 26.6963 10.1597 26.1796C10.4057 25.663 10.5287 25.1002 10.5287 24.4913C10.5287 23.8824 10.4057 23.3288 10.1597 22.8306C9.91011 22.3324 9.58888 21.9302 9.19607 21.6239C8.79958 21.3213 8.36272 21.1699 7.88547 21.1699H2.51641L2.79175 20.7548V28.2555L2.54395 27.8957ZM17.7425 37.8874C17.3387 37.8874 17.0083 37.7527 16.7513 37.4833C16.4943 37.2175 16.3658 36.8817 16.3658 36.4758V24.7404C16.3658 24.3344 16.4943 23.9968 16.7513 23.7274C17.0083 23.4617 17.3387 23.3288 17.7425 23.3288C18.128 23.3288 18.4529 23.4617 18.7172 23.7274C18.9852 23.9968 19.1192 24.3344 19.1192 24.7404V27.8403L18.8438 26.6502C18.9907 26.1335 19.2146 25.6538 19.5157 25.2109C19.8204 24.7681 20.1838 24.3806 20.606 24.0484C21.0282 23.7163 21.4999 23.458 22.0212 23.2735C22.5462 23.0889 23.0932 22.9967 23.6622 22.9967C24.1395 22.9967 24.5525 23.1258 24.9012 23.3842C25.25 23.6425 25.4244 23.9654 25.4244 24.3529C25.4244 24.8511 25.2959 25.2146 25.0389 25.4434C24.7819 25.6759 24.4974 25.7921 24.1854 25.7921C23.91 25.7921 23.6439 25.7313 23.3869 25.6095C23.1299 25.4914 22.827 25.4323 22.4783 25.4323C22.0928 25.4323 21.6982 25.5338 21.2943 25.7368C20.8905 25.9398 20.5234 26.2387 20.193 26.6335C19.8626 27.0321 19.6001 27.4989 19.4055 28.034C19.2146 28.5691 19.1192 29.1688 19.1192 29.8331V36.4758C19.1192 36.8817 18.9852 37.2175 18.7172 37.4833C18.4529 37.7527 18.128 37.8874 17.7425 37.8874ZM39.3013 23.1074C39.6868 23.1074 40.0117 23.2402 40.276 23.506C40.544 23.7754 40.678 24.113 40.678 24.519V36.4758C40.678 36.8817 40.544 37.2175 40.276 37.4833C40.0117 37.7527 39.6868 37.8874 39.3013 37.8874C38.8938 37.8874 38.5634 37.7527 38.3101 37.4833C38.0531 37.2175 37.9246 36.8817 37.9246 36.4758V34.483L38.4753 34.566C38.4753 34.8981 38.3413 35.2672 38.0733 35.6731C37.809 36.0791 37.4474 36.4702 36.9885 36.8467C36.5296 37.2268 35.9881 37.5405 35.364 37.7877C34.7363 38.0387 34.0663 38.1641 33.3541 38.1641C32.0875 38.1641 30.9495 37.8357 29.9399 37.1788C28.9303 36.5256 28.1319 35.627 27.5445 34.483C26.9571 33.339 26.6634 32.0381 26.6634 30.5804C26.6634 29.0858 26.9571 27.7702 27.5445 26.6335C28.1319 25.5006 28.9248 24.6112 29.9234 23.9654C30.9256 23.3196 32.0416 22.9967 33.2715 22.9967C34.0608 22.9967 34.7895 23.1258 35.4576 23.3842C36.1295 23.6425 36.7132 23.9746 37.2088 24.3806C37.7044 24.7865 38.0899 25.2146 38.3652 25.6648C38.6405 26.1187 38.7782 26.5487 38.7782 26.9546L37.9246 27.0376V24.519C37.9246 24.1315 38.0531 23.7993 38.3101 23.5226C38.5634 23.2458 38.8938 23.1074 39.3013 23.1074ZM33.6845 35.6178C34.5435 35.6178 35.2998 35.3963 35.9532 34.9535C36.6067 34.5107 37.117 33.9054 37.4841 33.1378C37.8512 32.3739 38.0348 31.5215 38.0348 30.5804C38.0348 29.6209 37.8512 28.7629 37.4841 28.0064C37.117 27.2498 36.6067 26.6502 35.9532 26.2073C35.2998 25.7645 34.5435 25.543 33.6845 25.543C32.8401 25.543 32.0875 25.7645 31.4267 26.2073C30.7659 26.6502 30.2519 27.2498 29.8848 28.0064C29.5177 28.7629 29.3342 29.6209 29.3342 30.5804C29.3342 31.5215 29.5177 32.3739 29.8848 33.1378C30.2519 33.9054 30.7604 34.5107 31.4102 34.9535C32.0637 35.3963 32.8218 35.6178 33.6845 35.6178ZM51.7961 23.0797C53.0626 23.0797 54.0447 23.351 54.7422 23.8934C55.4397 24.4396 55.9316 25.174 56.218 26.0966C56.5007 27.0192 56.642 28.034 56.642 29.1412V36.4758C56.642 36.8817 56.5098 37.2175 56.2455 37.4833C55.9775 37.7527 55.6508 37.8874 55.2653 37.8874C54.8615 37.8874 54.5311 37.7527 54.2741 37.4833C54.0171 37.2175 53.8886 36.8817 53.8886 36.4758V29.1412C53.8886 28.4953 53.8024 27.9049 53.6298 27.3698C53.4536 26.8347 53.1507 26.4103 52.7212 26.0966C52.288 25.7829 51.686 25.6261 50.915 25.6261C50.1991 25.6261 49.5622 25.7829 49.0042 26.0966C48.4425 26.4103 48.0111 26.8347 47.7101 27.3698C47.4054 27.9049 47.253 28.4953 47.253 29.1412V36.4758C47.253 36.8817 47.1209 37.2175 46.8566 37.4833C46.5886 37.7527 46.2618 37.8874 45.8764 37.8874C45.4725 37.8874 45.1421 37.7527 44.8851 37.4833C44.6282 37.2175 44.4997 36.8817 44.4997 36.4758V18.8173C44.4997 18.4114 44.6282 18.0756 44.8851 17.8099C45.1421 17.5405 45.4725 17.4058 45.8764 17.4058C46.2618 17.4058 46.5886 17.5405 46.8566 17.8099C47.1209 18.0756 47.253 18.4114 47.253 18.8173V26.3734L46.7574 26.6502C46.8859 26.2442 47.1025 25.829 47.4072 25.4047C47.7083 24.9803 48.0846 24.5928 48.5361 24.2422C48.984 23.8916 49.4833 23.6093 50.0339 23.3952C50.5846 23.1849 51.172 23.0797 51.7961 23.0797ZM72.226 23.1074C72.6115 23.1074 72.9382 23.2402 73.2062 23.506C73.4706 23.7754 73.6027 24.113 73.6027 24.519V36.4758C73.6027 36.8817 73.4706 37.2175 73.2062 37.4833C72.9382 37.7527 72.6115 37.8874 72.226 37.8874C71.8222 37.8874 71.4918 37.7527 71.2348 37.4833C70.9778 37.2175 70.8494 36.8817 70.8494 36.4758V34.483L71.4 34.566C71.4 34.8981 71.2679 35.2672 71.0035 35.6731C70.7355 36.0791 70.3721 36.4702 69.9132 36.8467C69.4543 37.2268 68.9128 37.5405 68.2887 37.7877C67.6646 38.0387 66.9946 38.1641 66.2788 38.1641C65.0122 38.1641 63.8742 37.8357 62.8646 37.1788C61.855 36.5256 61.0566 35.627 60.4692 34.483C59.8818 33.339 59.5881 32.0381 59.5881 30.5804C59.5881 29.0858 59.8818 27.7702 60.4692 26.6335C61.0566 25.5006 61.8514 24.6112 62.8536 23.9654C63.8521 23.3196 64.9663 22.9967 66.1962 22.9967C66.9855 22.9967 67.716 23.1258 68.3878 23.3842C69.056 23.6425 69.6379 23.9746 70.1335 24.3806C70.6291 24.7865 71.0145 25.2146 71.2899 25.6648C71.5652 26.1187 71.7029 26.5487 71.7029 26.9546L70.8494 27.0376V24.519C70.8494 24.1315 70.9778 23.7993 71.2348 23.5226C71.4918 23.2458 71.8222 23.1074 72.226 23.1074ZM66.6092 35.6178C67.4719 35.6178 68.23 35.3963 68.8835 34.9535C69.5332 34.5107 70.0417 33.9054 70.4088 33.1378C70.7759 32.3739 70.9595 31.5215 70.9595 30.5804C70.9595 29.6209 70.7759 28.7629 70.4088 28.0064C70.0417 27.2498 69.5332 26.6502 68.8835 26.2073C68.23 25.7645 67.4719 25.543 66.6092 25.543C65.7648 25.543 65.0122 25.7645 64.3514 26.2073C63.6906 26.6502 63.1767 27.2498 62.8095 28.0064C62.4424 28.7629 62.2589 29.6209 62.2589 30.5804C62.2589 31.5215 62.4424 32.3739 62.8095 33.1378C63.1767 33.9054 63.6869 34.5107 64.3404 34.9535C64.9902 35.3963 65.7465 35.6178 66.6092 35.6178ZM84.6988 23.0797C86.0571 23.0797 87.1034 23.4155 87.8376 24.0872C88.5718 24.7625 89.0583 25.6722 89.2969 26.8162L88.8563 26.6778L89.0491 26.235C89.2877 25.7552 89.6493 25.27 90.1339 24.7791C90.6222 24.292 91.2059 23.8861 91.885 23.5613C92.5642 23.2402 93.2893 23.0797 94.0602 23.0797C95.3267 23.0797 96.3088 23.351 97.0063 23.8934C97.7038 24.4396 98.1902 25.1685 98.4656 26.08C98.7409 26.9952 98.8786 28.0156 98.8786 29.1412V36.4758C98.8786 36.8817 98.7501 37.2175 98.4931 37.4833C98.2361 37.7527 97.9057 37.8874 97.5019 37.8874C97.1164 37.8874 96.7897 37.7527 96.5217 37.4833C96.2574 37.2175 96.1252 36.8817 96.1252 36.4758V29.1688C96.1252 28.523 96.0371 27.9326 95.8609 27.3975C95.6884 26.8624 95.3855 26.4324 94.9523 26.1077C94.5228 25.7866 93.9317 25.6261 93.1791 25.6261C92.4632 25.6261 91.8245 25.7866 91.2628 26.1077C90.7048 26.4324 90.2697 26.8624 89.9577 27.3975C89.6456 27.9326 89.4896 28.523 89.4896 29.1688V36.4758C89.4896 36.8817 89.3611 37.2175 89.1041 37.4833C88.8472 37.7527 88.5168 37.8874 88.1129 37.8874C87.7091 37.8874 87.3787 37.7527 87.1217 37.4833C86.8647 37.2175 86.7363 36.8817 86.7363 36.4758V29.1412C86.7363 28.4953 86.6481 27.9049 86.4719 27.3698C86.2994 26.8347 86.002 26.4103 85.5798 26.0966C85.1577 25.7829 84.5703 25.6261 83.8177 25.6261C83.1018 25.6261 82.4685 25.7829 81.9179 26.0966C81.3672 26.4103 80.9395 26.8347 80.6348 27.3698C80.3338 27.9049 80.1833 28.4953 80.1833 29.1412V36.4758C80.1833 36.8817 80.0493 37.2175 79.7813 37.4833C79.5169 37.7527 79.192 37.8874 78.8066 37.8874C78.4027 37.8874 78.0723 37.7527 77.8154 37.4833C77.5584 37.2175 77.4299 36.8817 77.4299 36.4758V24.7404C77.4299 24.3344 77.5584 23.9968 77.8154 23.7274C78.0723 23.4617 78.4027 23.3288 78.8066 23.3288C79.192 23.3288 79.5169 23.4617 79.7813 23.7274C80.0493 23.9968 80.1833 24.3344 80.1833 24.7404V26.3734L79.6601 26.6778C79.7886 26.2719 79.9997 25.8567 80.2934 25.4323C80.5871 25.0079 80.9579 24.6204 81.4057 24.2699C81.8573 23.9193 82.3584 23.6333 82.9091 23.4118C83.4597 23.1904 84.0563 23.0797 84.6988 23.0797Z" fill="#103756"/>
</g>
</g>
<g clip-path="url(#clip10_32_586)">
<g clip-path="url(#clip11_32_586)">
<path d="M17.6054 44.0977C17.5186 44.1019 17.3664 44.104 17.1486 44.104C16.9317 44.104 16.6315 44.0762 16.248 44.0208V45.5745H15.7079V40.8857C16.3248 40.8302 16.9382 40.8025 17.5481 40.8025C18.0609 40.8025 18.4196 40.9142 18.6244 41.1377C18.7988 41.3267 18.8859 41.6388 18.8859 42.0739V42.4368C18.8859 42.7729 18.8478 43.0598 18.7714 43.2975C18.6083 43.794 18.2196 44.0607 17.6054 44.0977ZM17.5702 41.246C16.9898 41.246 16.5491 41.2574 16.248 41.2801V43.5873C16.6185 43.6344 16.9486 43.6579 17.2384 43.6579C17.5273 43.6579 17.7346 43.6377 17.8605 43.5974C17.9863 43.5579 18.0843 43.4907 18.1546 43.3958C18.2734 43.2362 18.3329 42.9186 18.3329 42.4431V42.0613C18.3329 41.7681 18.2734 41.559 18.1546 41.4338C18.04 41.3086 17.8453 41.246 17.5702 41.246ZM21.8362 45.6362H21.6397C20.8858 45.6362 20.3882 45.4065 20.147 44.947C20.0047 44.6807 19.921 44.3249 19.8958 43.8797C19.8845 43.6705 19.8789 43.4428 19.8789 43.1967C19.8789 42.9505 19.8867 42.717 19.9023 42.4961C19.9171 42.276 19.9461 42.0769 19.9895 41.8988C20.0329 41.7198 20.0941 41.5623 20.173 41.4262C20.2528 41.2893 20.3574 41.1751 20.4867 41.0835C20.753 40.8987 21.1374 40.8063 21.6397 40.8063H21.8362C22.6222 40.8063 23.1255 41.0112 23.3458 41.4212C23.4838 41.6774 23.561 42.0345 23.5775 42.4923C23.5861 42.7157 23.5905 42.9518 23.5905 43.2005C23.5905 43.45 23.584 43.6797 23.571 43.8897C23.5588 44.1006 23.5324 44.2951 23.4916 44.4732C23.4517 44.6513 23.3931 44.8121 23.3159 44.9558C23.2387 45.0994 23.1341 45.2217 23.0023 45.3225C22.7316 45.5317 22.3429 45.6362 21.8362 45.6362ZM21.6397 45.1927H21.831C22.0635 45.1927 22.2566 45.1683 22.4101 45.1196C22.5637 45.07 22.6851 44.9839 22.7745 44.8613C22.9394 44.6336 23.0218 44.1968 23.0218 43.5508V43.2181C23.0218 42.9081 23.0135 42.6322 22.997 42.3902C22.9797 42.1483 22.9341 41.9441 22.8604 41.7778C22.7077 41.4334 22.3772 41.2612 21.8687 41.2612H21.602C21.0849 41.2612 20.7543 41.422 20.6103 41.7438C20.5192 41.9496 20.4693 42.192 20.4606 42.4709C20.4528 42.7498 20.4489 42.9988 20.4489 43.2181V43.5508C20.4489 44.1556 20.5418 44.582 20.7274 44.8298C20.9079 45.0717 21.212 45.1927 21.6397 45.1927ZM24.9114 45.5745V40.868H25.4515V45.1221H27.3775V45.5745H24.9114ZM29.055 45.5745L29.0511 43.8368L27.466 40.868H28.0569L29.0967 42.8892L29.3309 43.4084L29.5626 42.8791L30.5803 40.868H31.1776L29.5912 43.8368L29.5886 45.5745H29.055ZM31.9675 45.5745V40.868H34.7603V41.3229H32.5076V43.1715H34.4623V43.6239H32.5076V45.5745H31.9675ZM35.1573 45.5745L36.7489 40.868H37.4894L39.189 45.5745H38.6138L38.1309 44.1934H36.1736L35.7169 45.5745H35.1573ZM36.3207 43.7537H37.9787L37.1211 41.2826L37.0222 41.6342L36.3207 43.7537ZM43.0528 42.0739C43.0528 42.7057 42.806 43.053 42.3123 43.116V43.1261C42.6177 43.148 42.8455 43.232 42.9955 43.3781C43.1691 43.5504 43.2558 43.7999 43.2558 44.1266C43.2558 44.4543 43.2172 44.7084 43.14 44.889C43.0628 45.0688 42.9552 45.2091 42.8173 45.3099C42.5821 45.4863 42.2125 45.5745 41.7085 45.5745H40.0856V40.8831C40.6721 40.8294 41.1558 40.8025 41.5367 40.8025C41.9184 40.8025 42.1982 40.8311 42.3761 40.8882C42.5539 40.9445 42.6928 41.0259 42.7925 41.1326C42.9661 41.3191 43.0528 41.6329 43.0528 42.0739ZM40.6257 42.9686H41.3402C41.7662 42.9686 42.0616 42.9102 42.2264 42.7935C42.4147 42.6624 42.5088 42.4184 42.5088 42.0613V41.9971C42.5088 41.7215 42.4464 41.5254 42.3214 41.4086C42.1965 41.2943 41.9839 41.2372 41.6837 41.2372C41.4313 41.2372 41.217 41.2423 41.0409 41.2523L40.6257 41.2763V42.9686ZM40.6257 45.1372H41.7748C42.0863 45.1372 42.3088 45.0801 42.4425 44.9659C42.6099 44.8197 42.6936 44.5589 42.6936 44.1833C42.6936 43.749 42.5296 43.4949 42.2017 43.421C42.1019 43.3983 41.9939 43.387 41.8777 43.387H40.6257V45.1372ZM47.9382 44.0977C47.8515 44.1019 47.6996 44.104 47.4827 44.104C47.2659 44.104 46.9657 44.0762 46.5822 44.0208V45.5745H46.0421V40.8857C46.6581 40.8302 47.2711 40.8025 47.881 40.8025C48.3937 40.8025 48.7529 40.9142 48.9585 41.1377C49.132 41.3267 49.2188 41.6388 49.2188 42.0739V42.4368C49.2188 42.7729 49.1806 43.0598 49.1043 43.2975C48.9412 43.794 48.5525 44.0607 47.9382 44.0977ZM47.9031 41.246C47.3227 41.246 46.8824 41.2574 46.5822 41.2801V43.5873C46.9526 43.6344 47.2823 43.6579 47.5712 43.6579C47.861 43.6579 48.0688 43.6377 48.1946 43.5974C48.3204 43.5579 48.4184 43.4907 48.4887 43.3958C48.6067 43.2362 48.6657 42.9186 48.6657 42.4431V42.0613C48.6657 41.7681 48.6067 41.559 48.4887 41.4338C48.3742 41.3086 48.179 41.246 47.9031 41.246ZM50.3757 45.5745V40.8831C51.0637 40.8319 51.642 40.8063 52.1105 40.8063H52.173C52.684 40.8063 53.0423 40.9167 53.2479 41.1377C53.4188 41.3292 53.5043 41.6413 53.5043 42.0739C53.5043 42.6275 53.4227 43.0396 53.2596 43.3101C53.0922 43.5848 52.815 43.757 52.428 43.8267C52.5 43.9133 52.5708 44.0036 52.6402 44.0977L52.8276 44.3598L53.6631 45.5745H53.028L52.2979 44.4606C52.094 44.1615 51.9435 43.9637 51.8463 43.8671H51.8112C51.6611 43.8654 51.5162 43.8624 51.3765 43.8582L50.9158 43.8393V45.5745H50.3757ZM50.9158 41.2738V43.4235C51.1379 43.4344 51.4871 43.4399 51.9634 43.4399C52.3556 43.4399 52.6224 43.3332 52.7638 43.1198C52.8853 42.9333 52.946 42.607 52.946 42.1407C52.946 41.7492 52.8558 41.493 52.6753 41.3721C52.5695 41.3007 52.4536 41.2607 52.3278 41.2523C52.202 41.2439 52.0918 41.2397 51.9973 41.2397C51.9027 41.2397 51.8116 41.2402 51.724 41.241C51.6364 41.2418 51.5492 41.2435 51.4624 41.246C51.3748 41.2477 51.2867 41.2507 51.1982 41.2549L50.9158 41.2738ZM54.7823 45.5745V40.868H55.3184V45.5745H54.7823ZM58.0162 45.577L56.3439 40.868H56.9296L58.1555 44.4517L58.3207 45.0818L58.5016 44.4517L59.7002 40.868H60.278L58.6422 45.577H58.0162ZM60.6307 45.5745L62.2223 40.868H62.9628L64.6624 45.5745H64.0872L63.6044 44.1934H61.6471L61.189 45.5745H60.6307ZM61.7929 43.7537H63.4521L62.5932 41.2826L62.4956 41.6342L61.7929 43.7537ZM66.1421 45.5745V41.3229H64.8459V40.868H68.0239V41.3229H66.6822V45.5745H66.1421ZM68.8113 45.5745V40.868H71.565V41.3229H69.3513V42.9472H71.1369V43.3996H69.3513V45.1221H71.6509V45.5745H68.8113ZM74.2277 45.5745V40.868H74.7677V45.1221H76.6925V45.5745H74.2277ZM77.5566 45.5745V40.868H78.0941V45.5745H77.5566ZM79.3109 45.5745L80.0605 40.868H80.8895L81.9957 44.3434L82.1831 45.0944L82.364 44.3409L83.4311 40.868H84.2224L85.0071 45.5745H84.467L83.8762 42.0185L83.7877 41.1881L83.5938 42.0248L82.4967 45.572H81.8707L80.7268 42.0059L80.5017 41.1881L80.3937 42.0122L79.8575 45.5745H79.3109ZM86.2434 45.5745V40.868H86.7796V45.5745H86.2434ZM88.9308 45.5745V41.3229H87.6346V40.868H90.8113V41.3229H89.4709V45.5745H88.9308ZM91.5987 45.5745V40.868H94.3537V41.3229H92.1387V42.9472H93.9242V43.3996H92.1387V45.1221H94.4396V45.5745H91.5987ZM95.3948 45.5745V40.8957C95.3948 40.8957 95.554 40.8844 95.8724 40.8617C96.3487 40.8248 96.7287 40.8063 97.0124 40.8063C97.2962 40.8063 97.523 40.8168 97.6931 40.8378C97.8623 40.8596 98.011 40.8966 98.1395 40.9487C98.267 41.0016 98.3759 41.073 98.4661 41.1629C98.5563 41.2528 98.6301 41.3674 98.6873 41.5069C98.7949 41.7681 98.8487 42.1558 98.8487 42.67V43.1475C98.8487 43.7566 98.8023 44.219 98.7095 44.5349C98.601 44.8995 98.4071 45.162 98.1277 45.3225C97.8397 45.4905 97.4172 45.5745 96.8602 45.5745H95.3948ZM98.0926 41.6153C98.0163 41.4985 97.9061 41.4103 97.7621 41.3506C97.618 41.291 97.3968 41.2612 97.0983 41.2612C96.7999 41.2612 96.4125 41.2788 95.9362 41.3141V45.1347H96.9461C97.34 45.1347 97.6323 45.0721 97.8232 44.947C98.0098 44.826 98.1347 44.6177 98.198 44.322C98.2527 44.08 98.28 43.6885 98.28 43.1475V42.6674C98.28 42.1567 98.2175 41.806 98.0926 41.6153Z" fill="#0B2133"/>
</g>
</g>
</g>
</g>
</g>
</g>
</g>
</g>
</g>
</g>
<defs>
<clipPath id="clip0_32_586">
<rect width="99" height="62" fill="white"/>
</clipPath>
<clipPath id="clip1_32_586">
<rect width="98.7631" height="62.0502" fill="white" transform="translate(0.118454 -0.0251465)"/>
</clipPath>
<clipPath id="clip2_32_586">
<rect width="98.7631" height="62.0502" fill="white" transform="translate(0.118454 -0.0251465)"/>
</clipPath>
<clipPath id="clip3_32_586">
<rect width="98.7631" height="29.7474" fill="white" transform="translate(0.118454 16.1262)"/>
</clipPath>
<clipPath id="clip4_32_586">
<rect width="98.7631" height="29.7474" fill="white" transform="translate(0.118454 17.4058)"/>
</clipPath>
<clipPath id="clip5_32_586">
<rect width="98.7631" height="29.7474" fill="white" transform="translate(0.118454 17.4058)"/>
</clipPath>
<clipPath id="clip6_32_586">
<rect width="98.7631" height="29.7474" fill="white" transform="translate(0.118454 17.4058)"/>
</clipPath>
<clipPath id="clip7_32_586">
<rect width="98.7631" height="29.7474" fill="white" transform="translate(0.118454 17.4058)"/>
</clipPath>
<clipPath id="clip8_32_586">
<rect width="98.7631" height="20.7584" fill="white" transform="translate(0.118454 17.4058)"/>
</clipPath>
<clipPath id="clip9_32_586">
<rect width="98.7631" height="20.7584" fill="white" transform="translate(0.118454 17.4058)"/>
</clipPath>
<clipPath id="clip10_32_586">
<rect width="83.16" height="4.83375" fill="white" transform="translate(15.6986 40.8025)"/>
</clipPath>
<clipPath id="clip11_32_586">
<rect width="83.16" height="4.83375" fill="white" transform="translate(15.6986 40.8025)"/>
</clipPath>
</defs>
</svg>
