<svg width="74" height="24" viewBox="0 0 74 24" fill="none" xmlns="http://www.w3.org/2000/svg">
<path d="M37.2601 15.7734V17H31.2367V15.7734H37.2601ZM31.5414 5.625V17H30.0336V5.625H31.5414ZM36.4633 10.5156V11.7422H31.2367V10.5156H36.4633ZM37.182 5.625V6.85938H31.2367V5.625H37.182ZM40.3539 10.3516V17H38.9086V8.54688H40.2758L40.3539 10.3516ZM40.0101 12.4531L39.4086 12.4297C39.4138 11.8516 39.4997 11.3177 39.6664 10.8281C39.833 10.3333 40.0674 9.90365 40.3695 9.53906C40.6716 9.17448 41.031 8.89323 41.4476 8.69531C41.8695 8.49219 42.3357 8.39062 42.8461 8.39062C43.2627 8.39062 43.6377 8.44792 43.9711 8.5625C44.3044 8.67188 44.5883 8.84896 44.8226 9.09375C45.0622 9.33854 45.2445 9.65625 45.3695 10.0469C45.4945 10.4323 45.557 10.9036 45.557 11.4609V17H44.1039V11.4453C44.1039 11.0026 44.0388 10.6484 43.9086 10.3828C43.7784 10.112 43.5883 9.91667 43.3383 9.79688C43.0883 9.67188 42.781 9.60938 42.4164 9.60938C42.057 9.60938 41.7289 9.6849 41.432 9.83594C41.1403 9.98698 40.8877 10.1953 40.6742 10.4609C40.4659 10.7266 40.3018 11.0312 40.182 11.375C40.0674 11.7135 40.0101 12.0729 40.0101 12.4531Z" fill="white"/>
<path d="M61.759 14.9999L56.7521 10.0249H66.7659L61.759 14.9999Z" fill="white"/>
<path d="M12.6912 22C11.2893 22 9.97913 21.7375 8.76078 21.2125C7.54243 20.6875 6.48263 19.975 5.58138 19.075C4.68014 18.175 3.97082 17.1125 3.45344 15.8875C2.93606 14.6625 2.67737 13.35 2.67737 11.95C2.67737 10.55 2.93606 9.24583 3.45344 8.0375C3.97082 6.82917 4.68014 5.775 5.58138 4.875C6.48263 3.975 7.54243 3.27083 8.76078 2.7625C9.97913 2.25417 11.2893 2 12.6912 2C14.0932 2 15.4033 2.25417 16.6217 2.7625C17.84 3.27083 18.8998 3.975 19.8011 4.875C20.7023 5.775 21.4116 6.82917 21.929 8.0375C22.4464 9.24583 22.7051 10.55 22.7051 11.95C22.7051 13.35 22.4464 14.6625 21.929 15.8875C21.4116 17.1125 20.7023 18.175 19.8011 19.075C18.8998 19.975 17.84 20.6875 16.6217 21.2125C15.4033 21.7375 14.0932 22 12.6912 22ZM12.6912 20.55C13.2754 19.95 13.7635 19.2625 14.1557 18.4875C14.548 17.7125 14.8692 16.7917 15.1196 15.725H10.2879C10.5216 16.725 10.8345 17.625 11.2267 18.425C11.6189 19.225 12.1071 19.9333 12.6912 20.55ZM10.5633 20.25C10.146 19.6167 9.7872 18.9333 9.48679 18.2C9.18637 17.4667 8.93602 16.6417 8.73575 15.725H4.98055C5.61476 16.9083 6.34911 17.8375 7.1836 18.5125C8.01809 19.1875 9.14465 19.7667 10.5633 20.25ZM14.8442 20.225C16.0459 19.8417 17.1265 19.2667 18.0862 18.5C19.0458 17.7333 19.8177 16.8083 20.4019 15.725H16.6717C16.4548 16.625 16.2002 17.4417 15.9082 18.175C15.6161 18.9083 15.2614 19.5917 14.8442 20.225ZM4.47986 14.225H8.46037C8.4103 13.775 8.38109 13.3708 8.37275 13.0125C8.3644 12.6542 8.36023 12.3 8.36023 11.95C8.36023 11.5333 8.36857 11.1625 8.38526 10.8375C8.40195 10.5125 8.43533 10.15 8.4854 9.75H4.47986C4.36303 10.15 4.28376 10.5083 4.24203 10.825C4.20031 11.1417 4.17945 11.5167 4.17945 11.95C4.17945 12.3833 4.20031 12.7708 4.24203 13.1125C4.28376 13.4542 4.36303 13.825 4.47986 14.225ZM10.0125 14.225H15.395C15.4617 13.7083 15.5034 13.2875 15.5201 12.9625C15.5368 12.6375 15.5452 12.3 15.5452 11.95C15.5452 11.6167 15.5368 11.2958 15.5201 10.9875C15.5034 10.6792 15.4617 10.2667 15.395 9.75H10.0125C9.94575 10.2667 9.90403 10.6792 9.88734 10.9875C9.87065 11.2958 9.86231 11.6167 9.86231 11.95C9.86231 12.3 9.87065 12.6375 9.88734 12.9625C9.90403 13.2875 9.94575 13.7083 10.0125 14.225ZM16.897 14.225H20.9026C21.0194 13.825 21.0987 13.4542 21.1404 13.1125C21.1821 12.7708 21.203 12.3833 21.203 11.95C21.203 11.5167 21.1821 11.1417 21.1404 10.825C21.0987 10.5083 21.0194 10.15 20.9026 9.75H16.9221C16.9721 10.3333 17.0055 10.7792 17.0222 11.0875C17.0389 11.3958 17.0472 11.6833 17.0472 11.95C17.0472 12.3167 17.0347 12.6625 17.0097 12.9875C16.9847 13.3125 16.9471 13.725 16.897 14.225ZM16.6467 8.25H20.4019C19.8511 7.1 19.0959 6.14167 18.1362 5.375C17.1766 4.60833 16.0709 4.06667 14.8192 3.75C15.2364 4.36667 15.5911 5.03333 15.8831 5.75C16.1752 6.46667 16.4297 7.3 16.6467 8.25ZM10.2879 8.25H15.1446C14.961 7.36667 14.6523 6.5125 14.2183 5.6875C13.7844 4.8625 13.2754 4.13333 12.6912 3.5C12.1571 3.95 11.7065 4.54167 11.3393 5.275C10.9722 6.00833 10.6217 7 10.2879 8.25ZM4.98055 8.25H8.76078C8.94437 7.35 9.17803 6.54583 9.46175 5.8375C9.74548 5.12917 10.1043 4.44167 10.5382 3.775C9.28651 4.09167 8.19333 4.625 7.2587 5.375C6.32408 6.125 5.5647 7.08333 4.98055 8.25Z" fill="white"/>
</svg>
