<svg width="203" height="49" viewBox="0 0 203 49" fill="none" xmlns="http://www.w3.org/2000/svg">
<path d="M9.10412 35.8587C9.05838 35.8202 9.01263 35.7817 8.9717 35.7408C7.52951 34.3299 6.60015 31.6574 5.81285 29.8685C3.90358 25.5323 2.60826 20.9264 1.87392 16.2483C1.54407 14.1513 1.22626 11.9964 1.24071 9.85119C1.25515 7.29907 1.66205 4.45804 3.30889 2.40671C4.85701 0.480587 7.32967 -0.183928 9.70844 0.0423917C13.214 0.372241 16.6642 2.308 19.5919 4.10893C22.3414 5.79911 24.8574 7.84802 28.2908 7.98285C29.3429 8.02378 30.3999 7.86006 31.3677 7.43631C28.0067 7.73004 24.4481 5.71002 22.1223 3.47572C23.3045 2.19003 25.5701 1.11862 27.241 0.668384C30.696 -0.260972 35.1165 0.054431 36.7874 3.6924C38.4679 7.34964 37.9623 12.1024 37.2834 15.9305C36.5081 20.3004 35.3885 24.7594 33.8741 28.9343C33.3878 30.2778 32.4006 34.7584 30.7418 34.9775C30.1832 35.0522 29.1816 34.4912 28.6471 34.3154C27.9392 34.0843 27.229 33.8531 26.497 33.7039C26.1359 33.6316 22.1753 33.4222 22.3511 34.1685C22.026 32.7914 21.4458 31.0386 20.4659 29.984C18.0341 27.3717 17.0325 34.1878 16.6016 35.2087C15.6746 37.4093 10.7221 37.1805 9.10412 35.8587Z" fill="#35BACD"/>
<path d="M21.3977 42.4413C16.8737 44.6804 12.2005 43.0769 8.12188 40.6211C6.1813 39.4534 3.51362 37.6645 1.1517 37.7608C0.761662 37.7777 0.241608 37.8571 0.0201034 38.2327C0.0201034 38.2327 -0.186955 38.5866 0.727956 39.3571C3.01523 41.2784 5.5192 42.9156 7.99427 44.5793C10.2334 46.0841 12.5303 47.5094 15.1787 48.1571C19.108 49.1177 23.3551 48.8818 27.205 47.6731C27.5782 47.5552 27.9489 47.4275 28.3149 47.2903C30.7394 46.3826 33.0821 45.2414 35.2875 43.8859C40.4303 40.7246 44.504 36.1236 47.1211 30.7112C49.0424 26.7337 50.3498 22.4216 50.7447 18.0132C50.7447 18.0132 47.5064 30.0756 39.2649 34.4864C37.3436 35.5145 35.3838 36.7448 33.1663 36.9711C30.8165 37.2094 28.7411 35.8491 26.4562 35.5361C25.1561 35.358 23.8198 35.3628 22.5341 35.6541C20.4611 36.1212 18.5446 37.0794 16.5005 37.638C15.4845 37.9173 14.4348 38.0955 13.3754 38.0449C12.6242 38.0088 9.48943 36.6918 9.94447 38.6637C10.1756 39.6653 11.5672 40.6115 12.4268 41.0424C14.6683 42.1668 17.3697 41.7479 19.616 40.8739C19.616 40.8739 23.6368 39.3089 22.6304 41.5553C22.6401 41.5553 22.5895 41.8514 21.3977 42.4413Z" fill="#35BACD"/>
<path d="M65.744 12.228L62.16 22H59.78L56.196 12.228H58.296L60.984 19.998L63.658 12.228H65.744ZM66.4151 18.094C66.4151 17.31 66.5691 16.6147 66.8771 16.008C67.1945 15.4013 67.6191 14.9347 68.1511 14.608C68.6925 14.2813 69.2945 14.118 69.9571 14.118C70.5358 14.118 71.0398 14.2347 71.4691 14.468C71.9078 14.7013 72.2578 14.9953 72.5191 15.35V14.244H74.4931V22H72.5191V20.866C72.2671 21.23 71.9171 21.5333 71.4691 21.776C71.0305 22.0093 70.5218 22.126 69.9431 22.126C69.2898 22.126 68.6925 21.958 68.1511 21.622C67.6191 21.286 67.1945 20.8147 66.8771 20.208C66.5691 19.592 66.4151 18.8873 66.4151 18.094ZM72.5191 18.122C72.5191 17.646 72.4258 17.24 72.2391 16.904C72.0525 16.5587 71.8005 16.2973 71.4831 16.12C71.1658 15.9333 70.8251 15.84 70.4611 15.84C70.0971 15.84 69.7611 15.9287 69.4531 16.106C69.1451 16.2833 68.8931 16.5447 68.6971 16.89C68.5105 17.226 68.4171 17.6273 68.4171 18.094C68.4171 18.5607 68.5105 18.9713 68.6971 19.326C68.8931 19.6713 69.1451 19.9373 69.4531 20.124C69.7705 20.3107 70.1065 20.404 70.4611 20.404C70.8251 20.404 71.1658 20.3153 71.4831 20.138C71.8005 19.9513 72.0525 19.69 72.2391 19.354C72.4258 19.0087 72.5191 18.598 72.5191 18.122ZM78.3674 15.448C78.6194 15.0373 78.9461 14.7153 79.3474 14.482C79.7581 14.2487 80.2247 14.132 80.7474 14.132V16.19H80.2294C79.6134 16.19 79.1467 16.3347 78.8294 16.624C78.5214 16.9133 78.3674 17.4173 78.3674 18.136V22H76.4074V14.244H78.3674V15.448ZM81.5636 18.094C81.5636 17.31 81.7176 16.6147 82.0256 16.008C82.3429 15.4013 82.7722 14.9347 83.3136 14.608C83.8549 14.2813 84.4569 14.118 85.1196 14.118C85.6236 14.118 86.1042 14.23 86.5616 14.454C87.0189 14.6687 87.3829 14.958 87.6536 15.322V11.64H89.6416V22H87.6536V20.852C87.4109 21.2347 87.0702 21.5427 86.6316 21.776C86.1929 22.0093 85.6842 22.126 85.1056 22.126C84.4522 22.126 83.8549 21.958 83.3136 21.622C82.7722 21.286 82.3429 20.8147 82.0256 20.208C81.7176 19.592 81.5636 18.8873 81.5636 18.094ZM87.6676 18.122C87.6676 17.646 87.5742 17.24 87.3876 16.904C87.2009 16.5587 86.9489 16.2973 86.6316 16.12C86.3142 15.9333 85.9736 15.84 85.6096 15.84C85.2456 15.84 84.9096 15.9287 84.6016 16.106C84.2936 16.2833 84.0416 16.5447 83.8456 16.89C83.6589 17.226 83.5656 17.6273 83.5656 18.094C83.5656 18.5607 83.6589 18.9713 83.8456 19.326C84.0416 19.6713 84.2936 19.9373 84.6016 20.124C84.9189 20.3107 85.2549 20.404 85.6096 20.404C85.9736 20.404 86.3142 20.3153 86.6316 20.138C86.9489 19.9513 87.2009 19.69 87.3876 19.354C87.5742 19.0087 87.6676 18.598 87.6676 18.122ZM91.0518 18.094C91.0518 17.31 91.2058 16.6147 91.5138 16.008C91.8312 15.4013 92.2558 14.9347 92.7878 14.608C93.3292 14.2813 93.9312 14.118 94.5938 14.118C95.1725 14.118 95.6765 14.2347 96.1058 14.468C96.5445 14.7013 96.8945 14.9953 97.1558 15.35V14.244H99.1298V22H97.1558V20.866C96.9038 21.23 96.5538 21.5333 96.1058 21.776C95.6672 22.0093 95.1585 22.126 94.5798 22.126C93.9265 22.126 93.3292 21.958 92.7878 21.622C92.2558 21.286 91.8312 20.8147 91.5138 20.208C91.2058 19.592 91.0518 18.8873 91.0518 18.094ZM97.1558 18.122C97.1558 17.646 97.0625 17.24 96.8758 16.904C96.6892 16.5587 96.4372 16.2973 96.1198 16.12C95.8025 15.9333 95.4618 15.84 95.0978 15.84C94.7338 15.84 94.3978 15.9287 94.0898 16.106C93.7818 16.2833 93.5298 16.5447 93.3338 16.89C93.1472 17.226 93.0538 17.6273 93.0538 18.094C93.0538 18.5607 93.1472 18.9713 93.3338 19.326C93.5298 19.6713 93.7818 19.9373 94.0898 20.124C94.4072 20.3107 94.7432 20.404 95.0978 20.404C95.4618 20.404 95.8025 20.3153 96.1198 20.138C96.4372 19.9513 96.6892 19.69 96.8758 19.354C97.0625 19.0087 97.1558 18.598 97.1558 18.122ZM105.342 14.132C106.266 14.132 107.013 14.426 107.582 15.014C108.151 15.5927 108.436 16.4047 108.436 17.45V22H106.476V17.716C106.476 17.1 106.322 16.6287 106.014 16.302C105.706 15.966 105.286 15.798 104.754 15.798C104.213 15.798 103.783 15.966 103.466 16.302C103.158 16.6287 103.004 17.1 103.004 17.716V22H101.044V14.244H103.004V15.21C103.265 14.874 103.597 14.6127 103.998 14.426C104.409 14.23 104.857 14.132 105.342 14.132ZM117.052 12.228C118.079 12.228 118.979 12.4287 119.754 12.83C120.538 13.2313 121.14 13.8053 121.56 14.552C121.989 15.2893 122.204 16.148 122.204 17.128C122.204 18.108 121.989 18.9667 121.56 19.704C121.14 20.432 120.538 20.9967 119.754 21.398C118.979 21.7993 118.079 22 117.052 22H113.636V12.228H117.052ZM116.982 20.334C118.009 20.334 118.802 20.054 119.362 19.494C119.922 18.934 120.202 18.1453 120.202 17.128C120.202 16.1107 119.922 15.3173 119.362 14.748C118.802 14.1693 118.009 13.88 116.982 13.88H115.596V20.334H116.982ZM130.881 17.954C130.881 18.234 130.862 18.486 130.825 18.71H125.155C125.202 19.27 125.398 19.7087 125.743 20.026C126.088 20.3433 126.513 20.502 127.017 20.502C127.745 20.502 128.263 20.1893 128.571 19.564H130.685C130.461 20.3107 130.032 20.9267 129.397 21.412C128.762 21.888 127.983 22.126 127.059 22.126C126.312 22.126 125.64 21.9627 125.043 21.636C124.455 21.3 123.993 20.8287 123.657 20.222C123.33 19.6153 123.167 18.9153 123.167 18.122C123.167 17.3193 123.33 16.6147 123.657 16.008C123.984 15.4013 124.441 14.9347 125.029 14.608C125.617 14.2813 126.294 14.118 127.059 14.118C127.796 14.118 128.454 14.2767 129.033 14.594C129.621 14.9113 130.074 15.364 130.391 15.952C130.718 16.5307 130.881 17.198 130.881 17.954ZM128.851 17.394C128.842 16.89 128.66 16.4887 128.305 16.19C127.95 15.882 127.516 15.728 127.003 15.728C126.518 15.728 126.107 15.8773 125.771 16.176C125.444 16.4653 125.244 16.8713 125.169 17.394H128.851ZM136.61 14.132C137.534 14.132 138.28 14.426 138.85 15.014C139.419 15.5927 139.704 16.4047 139.704 17.45V22H137.744V17.716C137.744 17.1 137.59 16.6287 137.282 16.302C136.974 15.966 136.554 15.798 136.022 15.798C135.48 15.798 135.051 15.966 134.734 16.302C134.426 16.6287 134.272 17.1 134.272 17.716V22H132.312V14.244H134.272V15.21C134.533 14.874 134.864 14.6127 135.266 14.426C135.676 14.23 136.124 14.132 136.61 14.132ZM143.85 15.854V19.606C143.85 19.8673 143.91 20.0587 144.032 20.18C144.162 20.292 144.377 20.348 144.676 20.348H145.586V22H144.354C142.702 22 141.876 21.1973 141.876 19.592V15.854H140.952V14.244H141.876V12.326H143.85V14.244H145.586V15.854H143.85ZM146.491 18.094C146.491 17.31 146.645 16.6147 146.953 16.008C147.271 15.4013 147.695 14.9347 148.227 14.608C148.769 14.2813 149.371 14.118 150.033 14.118C150.612 14.118 151.116 14.2347 151.545 14.468C151.984 14.7013 152.334 14.9953 152.595 15.35V14.244H154.569V22H152.595V20.866C152.343 21.23 151.993 21.5333 151.545 21.776C151.107 22.0093 150.598 22.126 150.019 22.126C149.366 22.126 148.769 21.958 148.227 21.622C147.695 21.286 147.271 20.8147 146.953 20.208C146.645 19.592 146.491 18.8873 146.491 18.094ZM152.595 18.122C152.595 17.646 152.502 17.24 152.315 16.904C152.129 16.5587 151.877 16.2973 151.559 16.12C151.242 15.9333 150.901 15.84 150.537 15.84C150.173 15.84 149.837 15.9287 149.529 16.106C149.221 16.2833 148.969 16.5447 148.773 16.89C148.587 17.226 148.493 17.6273 148.493 18.094C148.493 18.5607 148.587 18.9713 148.773 19.326C148.969 19.6713 149.221 19.9373 149.529 20.124C149.847 20.3107 150.183 20.404 150.537 20.404C150.901 20.404 151.242 20.3153 151.559 20.138C151.877 19.9513 152.129 19.69 152.315 19.354C152.502 19.0087 152.595 18.598 152.595 18.122ZM158.444 11.64V22H156.484V11.64H158.444ZM163.24 17.1C163.24 16.1387 163.455 15.28 163.884 14.524C164.323 13.7587 164.915 13.166 165.662 12.746C166.418 12.3167 167.263 12.102 168.196 12.102C169.288 12.102 170.245 12.382 171.066 12.942C171.887 13.502 172.461 14.2767 172.788 15.266H170.534C170.31 14.7993 169.993 14.4493 169.582 14.216C169.181 13.9827 168.714 13.866 168.182 13.866C167.613 13.866 167.104 14.0013 166.656 14.272C166.217 14.5333 165.872 14.9067 165.62 15.392C165.377 15.8773 165.256 16.4467 165.256 17.1C165.256 17.744 165.377 18.3133 165.62 18.808C165.872 19.2933 166.217 19.6713 166.656 19.942C167.104 20.2033 167.613 20.334 168.182 20.334C168.714 20.334 169.181 20.2173 169.582 19.984C169.993 19.7413 170.31 19.3867 170.534 18.92H172.788C172.461 19.9187 171.887 20.698 171.066 21.258C170.254 21.8087 169.297 22.084 168.196 22.084C167.263 22.084 166.418 21.874 165.662 21.454C164.915 21.0247 164.323 20.432 163.884 19.676C163.455 18.92 163.24 18.0613 163.24 17.1ZM176.422 11.64V22H174.462V11.64H176.422ZM179.353 13.32C179.007 13.32 178.718 13.2127 178.485 12.998C178.261 12.774 178.149 12.4987 178.149 12.172C178.149 11.8453 178.261 11.5747 178.485 11.36C178.718 11.136 179.007 11.024 179.353 11.024C179.698 11.024 179.983 11.136 180.207 11.36C180.44 11.5747 180.557 11.8453 180.557 12.172C180.557 12.4987 180.44 12.774 180.207 12.998C179.983 13.2127 179.698 13.32 179.353 13.32ZM180.319 14.244V22H178.359V14.244H180.319ZM186.553 14.132C187.477 14.132 188.224 14.426 188.793 15.014C189.362 15.5927 189.647 16.4047 189.647 17.45V22H187.687V17.716C187.687 17.1 187.533 16.6287 187.225 16.302C186.917 15.966 186.497 15.798 185.965 15.798C185.424 15.798 184.994 15.966 184.677 16.302C184.369 16.6287 184.215 17.1 184.215 17.716V22H182.255V14.244H184.215V15.21C184.476 14.874 184.808 14.6127 185.209 14.426C185.62 14.23 186.068 14.132 186.553 14.132ZM192.505 13.32C192.16 13.32 191.87 13.2127 191.637 12.998C191.413 12.774 191.301 12.4987 191.301 12.172C191.301 11.8453 191.413 11.5747 191.637 11.36C191.87 11.136 192.16 11.024 192.505 11.024C192.85 11.024 193.135 11.136 193.359 11.36C193.592 11.5747 193.709 11.8453 193.709 12.172C193.709 12.4987 193.592 12.774 193.359 12.998C193.135 13.2127 192.85 13.32 192.505 13.32ZM193.471 14.244V22H191.511V14.244H193.471ZM194.903 18.122C194.903 17.3193 195.067 16.6193 195.393 16.022C195.72 15.4153 196.173 14.9487 196.751 14.622C197.33 14.286 197.993 14.118 198.739 14.118C199.701 14.118 200.494 14.3607 201.119 14.846C201.754 15.322 202.179 15.994 202.393 16.862H200.279C200.167 16.526 199.976 16.2647 199.705 16.078C199.444 15.882 199.117 15.784 198.725 15.784C198.165 15.784 197.722 15.9893 197.395 16.4C197.069 16.8013 196.905 17.3753 196.905 18.122C196.905 18.8593 197.069 19.4333 197.395 19.844C197.722 20.2453 198.165 20.446 198.725 20.446C199.519 20.446 200.037 20.0913 200.279 19.382H202.393C202.179 20.222 201.754 20.8893 201.119 21.384C200.485 21.8787 199.691 22.126 198.739 22.126C197.993 22.126 197.33 21.9627 196.751 21.636C196.173 21.3 195.72 20.8333 195.393 20.236C195.067 19.6293 194.903 18.9247 194.903 18.122Z" fill="#137887"/>
<path d="M64.344 41L63.312 39.968C62.912 40.368 62.476 40.668 62.004 40.868C61.532 41.06 61.004 41.156 60.42 41.156C59.828 41.156 59.304 41.052 58.848 40.844C58.392 40.636 58.04 40.34 57.792 39.956C57.544 39.564 57.42 39.112 57.42 38.6C57.42 38.024 57.584 37.512 57.912 37.064C58.24 36.608 58.728 36.248 59.376 35.984C59.144 35.704 58.98 35.444 58.884 35.204C58.788 34.956 58.74 34.684 58.74 34.388C58.74 34.02 58.832 33.692 59.016 33.404C59.208 33.116 59.48 32.888 59.832 32.72C60.184 32.552 60.592 32.468 61.056 32.468C61.528 32.468 61.928 32.56 62.256 32.744C62.592 32.92 62.84 33.164 63 33.476C63.168 33.788 63.236 34.136 63.204 34.52H61.836C61.844 34.224 61.772 33.996 61.62 33.836C61.468 33.668 61.26 33.584 60.996 33.584C60.732 33.584 60.516 33.664 60.348 33.824C60.188 33.976 60.108 34.164 60.108 34.388C60.108 34.604 60.168 34.82 60.288 35.036C60.416 35.244 60.636 35.516 60.948 35.852L63.156 38.048L64.008 36.644H65.484L64.404 38.492L64.104 38.984L66.132 41H64.344ZM60.42 39.992C61.172 39.992 61.836 39.684 62.412 39.068L60.204 36.848C59.26 37.224 58.788 37.792 58.788 38.552C58.788 38.96 58.94 39.304 59.244 39.584C59.548 39.856 59.94 39.992 60.42 39.992ZM71.5141 32.66V41H70.1461V32.66H71.5141ZM81.3142 34.28C81.8342 34.28 82.2982 34.388 82.7062 34.604C83.1222 34.82 83.4462 35.14 83.6782 35.564C83.9182 35.988 84.0382 36.5 84.0382 37.1V41H82.6822V37.304C82.6822 36.712 82.5342 36.26 82.2382 35.948C81.9422 35.628 81.5382 35.468 81.0262 35.468C80.5142 35.468 80.1062 35.628 79.8022 35.948C79.5062 36.26 79.3582 36.712 79.3582 37.304V41H78.0022V37.304C78.0022 36.712 77.8542 36.26 77.5582 35.948C77.2622 35.628 76.8582 35.468 76.3462 35.468C75.8342 35.468 75.4262 35.628 75.1222 35.948C74.8262 36.26 74.6782 36.712 74.6782 37.304V41H73.3102V34.388H74.6782V35.144C74.9022 34.872 75.1862 34.66 75.5302 34.508C75.8742 34.356 76.2422 34.28 76.6342 34.28C77.1622 34.28 77.6342 34.392 78.0502 34.616C78.4662 34.84 78.7862 35.164 79.0102 35.588C79.2102 35.188 79.5222 34.872 79.9462 34.64C80.3702 34.4 80.8262 34.28 81.3142 34.28ZM87.1469 35.36C87.3789 35.056 87.6949 34.8 88.0949 34.592C88.4949 34.384 88.9469 34.28 89.4509 34.28C90.0269 34.28 90.5509 34.424 91.0229 34.712C91.5029 34.992 91.8789 35.388 92.1509 35.9C92.4229 36.412 92.5589 37 92.5589 37.664C92.5589 38.328 92.4229 38.924 92.1509 39.452C91.8789 39.972 91.5029 40.38 91.0229 40.676C90.5509 40.964 90.0269 41.108 89.4509 41.108C88.9469 41.108 88.4989 41.008 88.1069 40.808C87.7149 40.6 87.3949 40.344 87.1469 40.04V44.144H85.7789V34.388H87.1469V35.36ZM91.1669 37.664C91.1669 37.208 91.0709 36.816 90.8789 36.488C90.6949 36.152 90.4469 35.9 90.1349 35.732C89.8309 35.556 89.5029 35.468 89.1509 35.468C88.8069 35.468 88.4789 35.556 88.1669 35.732C87.8629 35.908 87.6149 36.164 87.4229 36.5C87.2389 36.836 87.1469 37.232 87.1469 37.688C87.1469 38.144 87.2389 38.544 87.4229 38.888C87.6149 39.224 87.8629 39.48 88.1669 39.656C88.4789 39.832 88.8069 39.92 89.1509 39.92C89.5029 39.92 89.8309 39.832 90.1349 39.656C90.4469 39.472 90.6949 39.208 90.8789 38.864C91.0709 38.52 91.1669 38.12 91.1669 37.664ZM95.2797 32.12V41H93.9117V32.12H95.2797ZM96.6198 37.664C96.6198 37 96.7558 36.412 97.0278 35.9C97.3078 35.388 97.6838 34.992 98.1558 34.712C98.6358 34.424 99.1638 34.28 99.7398 34.28C100.26 34.28 100.712 34.384 101.096 34.592C101.488 34.792 101.8 35.044 102.032 35.348V34.388H103.412V41H102.032V40.016C101.8 40.328 101.484 40.588 101.084 40.796C100.684 41.004 100.228 41.108 99.7158 41.108C99.1478 41.108 98.6278 40.964 98.1558 40.676C97.6838 40.38 97.3078 39.972 97.0278 39.452C96.7558 38.924 96.6198 38.328 96.6198 37.664ZM102.032 37.688C102.032 37.232 101.936 36.836 101.744 36.5C101.56 36.164 101.316 35.908 101.012 35.732C100.708 35.556 100.38 35.468 100.028 35.468C99.6758 35.468 99.3478 35.556 99.0438 35.732C98.7398 35.9 98.4918 36.152 98.2998 36.488C98.1158 36.816 98.0238 37.208 98.0238 37.664C98.0238 38.12 98.1158 38.52 98.2998 38.864C98.4918 39.208 98.7398 39.472 99.0438 39.656C99.3558 39.832 99.6838 39.92 100.028 39.92C100.38 39.92 100.708 39.832 101.012 39.656C101.316 39.48 101.56 39.224 101.744 38.888C101.936 38.544 102.032 38.144 102.032 37.688ZM108.545 34.28C109.065 34.28 109.529 34.388 109.937 34.604C110.353 34.82 110.677 35.14 110.909 35.564C111.141 35.988 111.257 36.5 111.257 37.1V41H109.901V37.304C109.901 36.712 109.753 36.26 109.457 35.948C109.161 35.628 108.757 35.468 108.245 35.468C107.733 35.468 107.325 35.628 107.021 35.948C106.725 36.26 106.577 36.712 106.577 37.304V41H105.209V34.388H106.577V35.144C106.801 34.872 107.085 34.66 107.429 34.508C107.781 34.356 108.153 34.28 108.545 34.28ZM114.598 35.504V39.164C114.598 39.412 114.654 39.592 114.766 39.704C114.886 39.808 115.086 39.86 115.366 39.86H116.206V41H115.126C114.51 41 114.038 40.856 113.71 40.568C113.382 40.28 113.218 39.812 113.218 39.164V35.504H112.438V34.388H113.218V32.744H114.598V34.388H116.206V35.504H114.598ZM120.128 36.812C120.128 35.996 120.316 35.264 120.692 34.616C121.076 33.968 121.592 33.464 122.24 33.104C122.896 32.736 123.612 32.552 124.388 32.552C125.276 32.552 126.064 32.772 126.752 33.212C127.448 33.644 127.952 34.26 128.264 35.06H126.62C126.404 34.62 126.104 34.292 125.72 34.076C125.336 33.86 124.892 33.752 124.388 33.752C123.836 33.752 123.344 33.876 122.912 34.124C122.48 34.372 122.14 34.728 121.892 35.192C121.652 35.656 121.532 36.196 121.532 36.812C121.532 37.428 121.652 37.968 121.892 38.432C122.14 38.896 122.48 39.256 122.912 39.512C123.344 39.76 123.836 39.884 124.388 39.884C124.892 39.884 125.336 39.776 125.72 39.56C126.104 39.344 126.404 39.016 126.62 38.576H128.264C127.952 39.376 127.448 39.992 126.752 40.424C126.064 40.856 125.276 41.072 124.388 41.072C123.604 41.072 122.888 40.892 122.24 40.532C121.592 40.164 121.076 39.656 120.692 39.008C120.316 38.36 120.128 37.628 120.128 36.812ZM135.925 37.532C135.925 37.78 135.909 38.004 135.877 38.204H130.825C130.865 38.732 131.061 39.156 131.413 39.476C131.765 39.796 132.197 39.956 132.709 39.956C133.445 39.956 133.965 39.648 134.269 39.032H135.745C135.545 39.64 135.181 40.14 134.653 40.532C134.133 40.916 133.485 41.108 132.709 41.108C132.077 41.108 131.509 40.968 131.005 40.688C130.509 40.4 130.117 40 129.829 39.488C129.549 38.968 129.409 38.368 129.409 37.688C129.409 37.008 129.545 36.412 129.817 35.9C130.097 35.38 130.485 34.98 130.981 34.7C131.485 34.42 132.061 34.28 132.709 34.28C133.333 34.28 133.889 34.416 134.377 34.688C134.865 34.96 135.245 35.344 135.517 35.84C135.789 36.328 135.925 36.892 135.925 37.532ZM134.497 37.1C134.489 36.596 134.309 36.192 133.957 35.888C133.605 35.584 133.169 35.432 132.649 35.432C132.177 35.432 131.773 35.584 131.437 35.888C131.101 36.184 130.901 36.588 130.837 37.1H134.497ZM140.607 34.28C141.127 34.28 141.591 34.388 141.999 34.604C142.415 34.82 142.739 35.14 142.971 35.564C143.203 35.988 143.319 36.5 143.319 37.1V41H141.963V37.304C141.963 36.712 141.815 36.26 141.519 35.948C141.223 35.628 140.819 35.468 140.307 35.468C139.795 35.468 139.387 35.628 139.083 35.948C138.787 36.26 138.639 36.712 138.639 37.304V41H137.271V34.388H138.639V35.144C138.863 34.872 139.147 34.66 139.491 34.508C139.843 34.356 140.215 34.28 140.607 34.28ZM146.66 35.504V39.164C146.66 39.412 146.716 39.592 146.828 39.704C146.948 39.808 147.148 39.86 147.428 39.86H148.268V41H147.188C146.572 41 146.1 40.856 145.772 40.568C145.444 40.28 145.28 39.812 145.28 39.164V35.504H144.5V34.388H145.28V32.744H146.66V34.388H148.268V35.504H146.66ZM155.589 37.532C155.589 37.78 155.573 38.004 155.541 38.204H150.489C150.529 38.732 150.725 39.156 151.077 39.476C151.429 39.796 151.861 39.956 152.373 39.956C153.109 39.956 153.629 39.648 153.933 39.032H155.409C155.209 39.64 154.845 40.14 154.317 40.532C153.797 40.916 153.149 41.108 152.373 41.108C151.741 41.108 151.173 40.968 150.669 40.688C150.173 40.4 149.781 40 149.493 39.488C149.213 38.968 149.073 38.368 149.073 37.688C149.073 37.008 149.209 36.412 149.481 35.9C149.761 35.38 150.149 34.98 150.645 34.7C151.149 34.42 151.725 34.28 152.373 34.28C152.997 34.28 153.553 34.416 154.041 34.688C154.529 34.96 154.909 35.344 155.181 35.84C155.453 36.328 155.589 36.892 155.589 37.532ZM154.161 37.1C154.153 36.596 153.973 36.192 153.621 35.888C153.269 35.584 152.833 35.432 152.313 35.432C151.841 35.432 151.437 35.584 151.101 35.888C150.765 36.184 150.565 36.588 150.501 37.1H154.161ZM158.303 35.348C158.503 35.012 158.767 34.752 159.095 34.568C159.431 34.376 159.827 34.28 160.283 34.28V35.696H159.935C159.399 35.696 158.991 35.832 158.711 36.104C158.439 36.376 158.303 36.848 158.303 37.52V41H156.935V34.388H158.303V35.348Z" fill="#777777"/>
</svg>
