<svg width="3118" height="850" viewBox="0 0 3118 850" fill="none" xmlns="http://www.w3.org/2000/svg">
<path d="M150.274 603.689C149.574 603.1 148.875 602.51 148.249 601.884C126.191 580.295 111.977 539.402 99.9357 512.03C70.7344 445.68 50.9232 375.204 39.6919 303.622C34.647 271.534 29.7863 238.562 30.0073 205.737C30.2282 166.686 36.4514 123.214 61.6389 91.8261C85.3166 62.3537 123.135 52.1856 159.517 55.6487C213.132 60.6958 265.901 90.3157 310.679 117.872C352.731 143.734 391.212 175.086 443.723 177.149C459.815 177.775 475.981 175.27 490.784 168.786C439.378 173.281 384.952 142.371 349.38 108.183C367.461 88.5105 402.112 72.1164 427.668 65.2272C480.51 51.0068 548.119 55.8329 573.674 111.499C599.377 167.46 591.644 240.183 581.26 298.76C569.403 365.625 552.28 433.854 529.118 497.735C521.679 518.293 506.581 586.853 481.21 590.205C472.667 591.347 457.348 582.764 449.173 580.074C438.347 576.537 427.484 573.001 416.289 570.717C410.766 569.611 350.19 566.406 352.879 577.827C347.907 556.754 339.033 529.934 324.046 513.798C286.854 473.826 271.535 578.122 264.943 593.742C250.766 627.414 175.02 623.914 150.274 603.689Z" fill="white"/>
<path d="M338.641 704.522C269.37 738.76 197.813 714.241 135.362 676.69C105.648 658.835 64.8003 631.482 28.6348 632.954C22.6625 633.212 14.6995 634.427 11.3078 640.17C11.3078 640.17 8.13736 645.582 22.1464 657.363C57.1691 686.741 95.5097 711.775 133.408 737.214C167.693 760.223 202.863 782.017 243.416 791.921C303.581 806.61 368.613 803.002 427.561 784.521C433.276 782.717 438.953 780.766 444.557 778.667C481.681 764.788 517.551 747.338 551.321 726.611C630.066 678.273 692.443 607.92 732.517 525.161C761.936 464.343 781.954 398.408 788 331C788 331 738.415 515.442 612.223 582.886C582.804 598.606 552.795 617.419 518.842 620.879C482.86 624.524 451.082 603.724 416.096 598.938C396.189 596.213 375.728 596.287 356.042 600.742C324.3 607.884 294.955 622.536 263.655 631.077C248.098 635.347 232.024 638.072 215.803 637.299C204.301 636.746 156.302 616.609 163.269 646.76C166.808 662.075 188.117 676.543 201.278 683.133C235.6 700.326 276.964 693.92 311.36 680.556C311.36 680.556 372.926 656.626 357.516 690.975C357.664 690.975 356.889 695.503 338.641 704.522Z" fill="white"/>
<path d="M1017.1 242.436L962.257 392.071H925.84L871 242.436H903.133L944.262 361.415L985.178 242.436H1017.1Z" fill="white"/>
<path d="M1027.37 332.26C1027.37 320.255 1029.72 309.607 1034.43 300.318C1039.29 291.028 1045.79 283.882 1053.93 278.88C1062.21 273.878 1071.42 271.377 1081.56 271.377C1090.42 271.377 1098.13 273.164 1104.7 276.736C1111.41 280.309 1116.77 284.811 1120.76 290.242V273.306H1150.97V392.071H1120.76V374.706C1116.91 380.28 1111.55 384.925 1104.7 388.641C1097.99 392.214 1090.2 394 1081.35 394C1071.35 394 1062.21 391.427 1053.93 386.282C1045.79 381.137 1039.29 373.92 1034.43 364.631C1029.72 355.198 1027.37 344.408 1027.37 332.26ZM1120.76 332.689C1120.76 325.4 1119.34 319.183 1116.48 314.038C1113.62 308.75 1109.77 304.748 1104.91 302.033C1100.06 299.174 1094.84 297.745 1089.27 297.745C1083.7 297.745 1078.56 299.103 1073.85 301.818C1069.14 304.534 1065.28 308.536 1062.28 313.823C1059.43 318.968 1058 325.114 1058 332.26C1058 339.406 1059.43 345.694 1062.28 351.125C1065.28 356.413 1069.14 360.486 1073.85 363.344C1078.71 366.203 1083.85 367.632 1089.27 367.632C1094.84 367.632 1100.06 366.274 1104.91 363.559C1109.77 360.7 1113.62 356.699 1116.48 351.554C1119.34 346.266 1120.76 339.977 1120.76 332.689Z" fill="white"/>
<path d="M1210.25 291.743C1214.11 285.454 1219.1 280.524 1225.24 276.951C1231.53 273.378 1238.67 271.591 1246.67 271.591V303.105H1238.74C1229.32 303.105 1222.17 305.32 1217.32 309.75C1212.61 314.181 1210.25 321.898 1210.25 332.903V392.071H1180.26V273.306H1210.25V291.743Z" fill="white"/>
<path d="M1259.15 332.26C1259.15 320.255 1261.51 309.607 1266.22 300.318C1271.08 291.028 1277.65 283.882 1285.93 278.88C1294.22 273.878 1303.43 271.377 1313.57 271.377C1321.28 271.377 1328.63 273.092 1335.63 276.522C1342.63 279.809 1348.2 284.24 1352.34 289.813V233.433H1382.76V392.071H1352.34V374.492C1348.63 380.351 1343.41 385.068 1336.7 388.641C1329.99 392.214 1322.21 394 1313.35 394C1303.36 394 1294.22 391.427 1285.93 386.282C1277.65 381.137 1271.08 373.92 1266.22 364.631C1261.51 355.198 1259.15 344.408 1259.15 332.26ZM1352.55 332.689C1352.55 325.4 1351.13 319.183 1348.27 314.038C1345.41 308.75 1341.56 304.748 1336.7 302.033C1331.85 299.174 1326.63 297.745 1321.06 297.745C1315.49 297.745 1310.35 299.103 1305.64 301.818C1300.93 304.534 1297.07 308.536 1294.07 313.823C1291.22 318.968 1289.79 325.114 1289.79 332.26C1289.79 339.406 1291.22 345.694 1294.07 351.125C1297.07 356.413 1300.93 360.486 1305.64 363.344C1310.5 366.203 1315.64 367.632 1321.06 367.632C1326.63 367.632 1331.85 366.274 1336.7 363.559C1341.56 360.7 1345.41 356.699 1348.27 351.554C1351.13 346.266 1352.55 339.977 1352.55 332.689Z" fill="white"/>
<path d="M1404.34 332.26C1404.34 320.255 1406.69 309.607 1411.41 300.318C1416.26 291.028 1422.76 283.882 1430.9 278.88C1439.18 273.878 1448.39 271.377 1458.53 271.377C1467.39 271.377 1475.1 273.164 1481.67 276.736C1488.38 280.309 1493.74 284.811 1497.74 290.242V273.306H1527.94V392.071H1497.74V374.706C1493.88 380.28 1488.52 384.925 1481.67 388.641C1474.96 392.214 1467.17 394 1458.32 394C1448.32 394 1439.18 391.427 1430.9 386.282C1422.76 381.137 1416.26 373.92 1411.41 364.631C1406.69 355.198 1404.34 344.408 1404.34 332.26ZM1497.74 332.689C1497.74 325.4 1496.31 319.183 1493.45 314.038C1490.6 308.75 1486.74 304.748 1481.88 302.033C1477.03 299.174 1471.82 297.745 1466.25 297.745C1460.68 297.745 1455.54 299.103 1450.82 301.818C1446.11 304.534 1442.25 308.536 1439.25 313.823C1436.4 318.968 1434.97 325.114 1434.97 332.26C1434.97 339.406 1436.4 345.694 1439.25 351.125C1442.25 356.413 1446.11 360.486 1450.82 363.344C1455.68 366.203 1460.82 367.632 1466.25 367.632C1471.82 367.632 1477.03 366.274 1481.88 363.559C1486.74 360.7 1490.6 356.699 1493.45 351.554C1496.31 346.266 1497.74 339.977 1497.74 332.689Z" fill="white"/>
<path d="M1623 271.591C1637.13 271.591 1648.56 276.093 1657.27 285.097C1665.98 293.958 1670.34 306.392 1670.34 322.398V392.071H1640.35V326.472C1640.35 317.039 1637.99 309.822 1633.28 304.82C1628.57 299.675 1622.14 297.102 1614 297.102C1605.72 297.102 1599.15 299.675 1594.29 304.82C1589.58 309.822 1587.22 317.039 1587.22 326.472V392.071H1557.23V273.306H1587.22V288.098C1591.22 282.953 1596.29 278.952 1602.43 276.093C1608.71 273.092 1615.57 271.591 1623 271.591Z" fill="white"/>
<path d="M1802.17 242.436C1817.88 242.436 1831.66 245.509 1843.51 251.654C1855.51 257.8 1864.72 266.589 1871.15 278.023C1877.72 289.313 1881 302.462 1881 317.468C1881 332.474 1877.72 345.623 1871.15 356.913C1864.72 368.061 1855.51 376.707 1843.51 382.852C1831.66 388.998 1817.88 392.071 1802.17 392.071H1749.9V242.436H1802.17ZM1801.1 366.56C1816.81 366.56 1828.95 362.272 1837.52 353.697C1846.08 345.122 1850.37 333.046 1850.37 317.468C1850.37 301.89 1846.08 289.742 1837.52 281.024C1828.95 272.163 1816.81 267.733 1801.1 267.733H1779.89V366.56H1801.1Z" fill="white"/>
<path d="M2013.77 330.116C2013.77 334.404 2013.49 338.262 2012.92 341.692H1926.16C1926.87 350.267 1929.87 356.984 1935.16 361.844C1940.44 366.703 1946.94 369.132 1954.65 369.132C1965.79 369.132 1973.71 364.345 1978.43 354.769H2010.77C2007.35 366.203 2000.78 375.635 1991.07 383.067C1981.36 390.356 1969.43 394 1955.29 394C1943.87 394 1933.58 391.499 1924.44 386.497C1915.45 381.352 1908.38 374.135 1903.24 364.845C1898.24 355.555 1895.74 344.836 1895.74 332.689C1895.74 320.398 1898.24 309.607 1903.24 300.318C1908.24 291.028 1915.23 283.882 1924.23 278.88C1933.23 273.878 1943.58 271.377 1955.29 271.377C1966.57 271.377 1976.64 273.807 1985.5 278.666C1994.49 283.525 2001.42 290.456 2006.28 299.46C2011.27 308.321 2013.77 318.54 2013.77 330.116ZM1982.71 321.541C1982.57 313.823 1979.78 307.678 1974.36 303.105C1968.93 298.388 1962.29 296.03 1954.44 296.03C1947.01 296.03 1940.73 298.317 1935.58 302.89C1930.59 307.321 1927.52 313.538 1926.37 321.541H1982.71Z" fill="white"/>
<path d="M2101.43 271.591C2115.57 271.591 2126.99 276.093 2135.7 285.097C2144.41 293.958 2148.77 306.392 2148.77 322.398V392.071H2118.78V326.472C2118.78 317.039 2116.42 309.822 2111.71 304.82C2107 299.675 2100.57 297.102 2092.43 297.102C2084.15 297.102 2077.58 299.675 2072.72 304.82C2068.01 309.822 2065.65 317.039 2065.65 326.472V392.071H2035.66V273.306H2065.65V288.098C2069.65 282.953 2074.72 278.952 2080.86 276.093C2087.15 273.092 2094 271.591 2101.43 271.591Z" fill="white"/>
<path d="M2212.21 297.96V355.412C2212.21 359.414 2213.14 362.344 2214.99 364.202C2216.99 365.917 2220.28 366.774 2224.85 366.774H2238.77V392.071H2219.92C2194.64 392.071 2182 379.78 2182 355.198V297.96H2167.86V273.306H2182V243.937H2212.21V273.306H2238.77V297.96H2212.21Z" fill="white"/>
<path d="M2252.63 332.26C2252.63 320.255 2254.99 309.607 2259.7 300.318C2264.55 291.028 2271.05 283.882 2279.19 278.88C2287.48 273.878 2296.69 271.377 2306.83 271.377C2315.68 271.377 2323.39 273.164 2329.96 276.736C2336.67 280.309 2342.03 284.811 2346.03 290.242V273.306H2376.23V392.071H2346.03V374.706C2342.17 380.28 2336.82 384.925 2329.96 388.641C2323.25 392.214 2315.47 394 2306.61 394C2296.61 394 2287.48 391.427 2279.19 386.282C2271.05 381.137 2264.55 373.92 2259.7 364.631C2254.99 355.198 2252.63 344.408 2252.63 332.26ZM2346.03 332.689C2346.03 325.4 2344.6 319.183 2341.74 314.038C2338.89 308.75 2335.03 304.748 2330.18 302.033C2325.32 299.174 2320.11 297.745 2314.54 297.745C2308.97 297.745 2303.83 299.103 2299.11 301.818C2294.4 304.534 2290.55 308.536 2287.55 313.823C2284.69 318.968 2283.26 325.114 2283.26 332.26C2283.26 339.406 2284.69 345.694 2287.55 351.125C2290.55 356.413 2294.4 360.486 2299.11 363.344C2303.97 366.203 2309.11 367.632 2314.54 367.632C2320.11 367.632 2325.32 366.274 2330.18 363.559C2335.03 360.7 2338.89 356.699 2341.74 351.554C2344.6 346.266 2346.03 339.977 2346.03 332.689Z" fill="white"/>
<path d="M2435.51 233.433V392.071H2405.52V233.433H2435.51Z" fill="white"/>
<path d="M2508.9 317.039C2508.9 302.319 2512.19 289.17 2518.76 277.594C2525.47 265.875 2534.54 256.799 2545.96 250.368C2557.53 243.794 2570.46 240.507 2584.74 240.507C2601.45 240.507 2616.08 244.794 2628.65 253.369C2641.22 261.945 2650 273.807 2655 288.956H2620.51C2617.08 281.81 2612.23 276.451 2605.95 272.878C2599.8 269.305 2592.66 267.518 2584.52 267.518C2575.81 267.518 2568.03 269.591 2561.17 273.735C2554.46 277.737 2549.18 283.454 2545.32 290.885C2541.61 298.317 2539.75 307.035 2539.75 317.039C2539.75 326.9 2541.61 335.618 2545.32 343.193C2549.18 350.625 2554.46 356.413 2561.17 360.557C2568.03 364.559 2575.81 366.56 2584.52 366.56C2592.66 366.56 2599.8 364.773 2605.95 361.201C2612.23 357.485 2617.08 352.054 2620.51 344.908H2655C2650 360.2 2641.22 372.134 2628.65 380.709C2616.23 389.141 2601.59 393.357 2584.74 393.357C2570.46 393.357 2557.53 390.141 2545.96 383.71C2534.54 377.136 2525.47 368.061 2518.76 356.484C2512.19 344.908 2508.9 331.76 2508.9 317.039Z" fill="white"/>
<path d="M2710.61 233.433V392.071H2680.62V233.433H2710.61Z" fill="white"/>
<path d="M2755.45 259.158C2750.16 259.158 2745.74 257.514 2742.17 254.227C2738.74 250.797 2737.02 246.581 2737.02 241.579C2737.02 236.577 2738.74 232.432 2742.17 229.145C2745.74 225.715 2750.16 224 2755.45 224C2760.73 224 2765.09 225.715 2768.51 229.145C2772.08 232.432 2773.87 236.577 2773.87 241.579C2773.87 246.581 2772.08 250.797 2768.51 254.227C2765.09 257.514 2760.73 259.158 2755.45 259.158ZM2770.23 273.306V392.071H2740.24V273.306H2770.23Z" fill="white"/>
<path d="M2865.62 271.591C2879.76 271.591 2891.19 276.093 2899.9 285.097C2908.61 293.958 2912.97 306.392 2912.97 322.398V392.071H2882.97V326.472C2882.97 317.039 2880.62 309.822 2875.91 304.82C2871.19 299.675 2864.77 297.102 2856.63 297.102C2848.34 297.102 2841.77 299.675 2836.92 304.82C2832.21 309.822 2829.85 317.039 2829.85 326.472V392.071H2799.86V273.306H2829.85V288.098C2833.85 282.953 2838.92 278.952 2845.06 276.093C2851.34 273.092 2858.2 271.591 2865.62 271.591Z" fill="white"/>
<path d="M2956.69 259.158C2951.41 259.158 2946.98 257.514 2943.41 254.227C2939.99 250.797 2938.27 246.581 2938.27 241.579C2938.27 236.577 2939.99 232.432 2943.41 229.145C2946.98 225.715 2951.41 224 2956.69 224C2961.98 224 2966.33 225.715 2969.76 229.145C2973.33 232.432 2975.12 236.577 2975.12 241.579C2975.12 246.581 2973.33 250.797 2969.76 254.227C2966.33 257.514 2961.98 259.158 2956.69 259.158ZM2971.48 273.306V392.071H2941.48V273.306H2971.48Z" fill="white"/>
<path d="M2993.39 332.689C2993.39 320.398 2995.89 309.679 3000.89 300.532C3005.89 291.243 3012.82 284.097 3021.67 279.095C3030.52 273.95 3040.66 271.377 3052.09 271.377C3066.8 271.377 3078.94 275.093 3088.51 282.525C3098.22 289.813 3104.72 300.103 3108 313.395H3075.65C3073.94 308.25 3071.01 304.248 3066.87 301.39C3062.87 298.388 3057.87 296.888 3051.88 296.888C3043.31 296.888 3036.52 300.032 3031.52 306.32C3026.53 312.466 3024.03 321.255 3024.03 332.689C3024.03 343.979 3026.53 352.768 3031.52 359.057C3036.52 365.202 3043.31 368.275 3051.88 368.275C3064.01 368.275 3071.94 362.844 3075.65 351.982H3108C3104.72 364.845 3098.22 375.063 3088.51 382.638C3078.8 390.213 3066.66 394 3052.09 394C3040.66 394 3030.52 391.499 3021.67 386.497C3012.82 381.352 3005.89 374.206 3000.89 365.059C2995.89 355.77 2993.39 344.979 2993.39 332.689Z" fill="white"/>
<path d="M995.95 682.888L980.159 667.096C974.038 673.217 967.366 677.808 960.144 680.868C952.921 683.806 944.842 685.275 935.906 685.275C926.847 685.275 918.829 683.684 911.851 680.501C904.873 677.318 899.487 672.788 895.692 666.912C891.897 660.914 890 653.997 890 646.162C890 637.347 892.51 629.512 897.529 622.657C902.548 615.679 910.015 610.17 919.93 606.13C916.38 601.845 913.871 597.866 912.402 594.194C910.933 590.399 910.198 586.236 910.198 581.707C910.198 576.075 911.606 571.056 914.422 566.649C917.36 562.242 921.522 558.752 926.908 556.182C932.294 553.611 938.538 552.325 945.638 552.325C952.86 552.325 958.981 553.733 964 556.549C969.141 559.242 972.936 562.976 975.385 567.75C977.955 572.525 978.996 577.85 978.506 583.727H957.573C957.696 579.197 956.594 575.708 954.268 573.259C951.942 570.689 948.759 569.403 944.72 569.403C940.68 569.403 937.375 570.627 934.804 573.076C932.356 575.402 931.131 578.279 931.131 581.707C931.131 585.012 932.05 588.317 933.886 591.623C935.844 594.806 939.211 598.968 943.985 604.11L977.772 637.715L990.809 616.23H1013.39L996.868 644.509L992.278 652.038L1023.31 682.888H995.95ZM935.906 667.463C947.413 667.463 957.573 662.75 966.387 653.323L932.6 619.351C918.155 625.105 910.933 633.797 910.933 645.427C910.933 651.671 913.259 656.935 917.911 661.22C922.562 665.382 928.561 667.463 935.906 667.463Z" fill="white"/>
<path d="M1105.67 555.263V682.888H1084.73V555.263H1105.67Z" fill="white"/>
<path d="M1255.63 580.054C1263.58 580.054 1270.68 581.707 1276.93 585.012C1283.29 588.317 1288.25 593.214 1291.8 599.703C1295.47 606.191 1297.31 614.026 1297.31 623.208V682.888H1276.56V626.329C1276.56 617.27 1274.29 610.353 1269.76 605.579C1265.24 600.682 1259.05 598.234 1251.22 598.234C1243.38 598.234 1237.14 600.682 1232.49 605.579C1227.96 610.353 1225.7 617.27 1225.7 626.329V682.888H1204.95V626.329C1204.95 617.27 1202.68 610.353 1198.15 605.579C1193.62 600.682 1187.44 598.234 1179.61 598.234C1171.77 598.234 1165.53 600.682 1160.88 605.579C1156.35 610.353 1154.08 617.27 1154.08 626.329V682.888H1133.15V581.707H1154.08V593.275C1157.51 589.113 1161.86 585.869 1167.12 583.543C1172.38 581.217 1178.01 580.054 1184.01 580.054C1192.09 580.054 1199.31 581.768 1205.68 585.196C1212.05 588.623 1216.94 593.581 1220.37 600.07C1223.43 593.949 1228.2 589.113 1234.69 585.563C1241.18 581.89 1248.16 580.054 1255.63 580.054Z" fill="white"/>
<path d="M1344.88 596.581C1348.43 591.929 1353.26 588.011 1359.38 584.828C1365.5 581.645 1372.42 580.054 1380.13 580.054C1388.95 580.054 1396.97 582.257 1404.19 586.665C1411.53 590.949 1417.29 597.009 1421.45 604.844C1425.61 612.679 1427.69 621.677 1427.69 631.838C1427.69 641.999 1425.61 651.12 1421.45 659.2C1417.29 667.157 1411.53 673.401 1404.19 677.93C1396.97 682.337 1388.95 684.541 1380.13 684.541C1372.42 684.541 1365.57 683.011 1359.57 679.95C1353.57 676.767 1348.67 672.85 1344.88 668.198V731H1323.94V581.707H1344.88V596.581ZM1406.39 631.838C1406.39 624.86 1404.92 618.862 1401.98 613.842C1399.17 608.701 1395.37 604.844 1390.6 602.273C1385.95 599.58 1380.93 598.234 1375.54 598.234C1370.28 598.234 1365.26 599.58 1360.49 602.273C1355.83 604.967 1352.04 608.884 1349.1 614.026C1346.29 619.168 1344.88 625.228 1344.88 632.206C1344.88 639.184 1346.29 645.305 1349.1 650.569C1352.04 655.711 1355.83 659.628 1360.49 662.321C1365.26 665.015 1370.28 666.361 1375.54 666.361C1380.93 666.361 1385.95 665.015 1390.6 662.321C1395.37 659.506 1399.17 655.466 1401.98 650.202C1404.92 644.937 1406.39 638.816 1406.39 631.838Z" fill="white"/>
<path d="M1469.33 547V682.888H1448.39V547H1469.33Z" fill="white"/>
<path d="M1489.83 631.838C1489.83 621.677 1491.91 612.679 1496.07 604.844C1500.36 597.009 1506.11 590.949 1513.33 586.665C1520.68 582.257 1528.76 580.054 1537.57 580.054C1545.53 580.054 1552.45 581.645 1558.32 584.828C1564.32 587.889 1569.09 591.745 1572.64 596.397V581.707H1593.76V682.888H1572.64V667.83C1569.09 672.605 1564.26 676.583 1558.14 679.766C1552.02 682.949 1545.04 684.541 1537.21 684.541C1528.51 684.541 1520.56 682.337 1513.33 677.93C1506.11 673.401 1500.36 667.157 1496.07 659.2C1491.91 651.12 1489.83 641.999 1489.83 631.838ZM1572.64 632.206C1572.64 625.228 1571.18 619.168 1568.24 614.026C1565.42 608.884 1561.69 604.967 1557.04 602.273C1552.38 599.58 1547.37 598.234 1541.98 598.234C1536.59 598.234 1531.57 599.58 1526.92 602.273C1522.27 604.844 1518.48 608.701 1515.54 613.842C1512.72 618.862 1511.31 624.86 1511.31 631.838C1511.31 638.816 1512.72 644.937 1515.54 650.202C1518.48 655.466 1522.27 659.506 1526.92 662.321C1531.7 665.015 1536.72 666.361 1541.98 666.361C1547.37 666.361 1552.38 665.015 1557.04 662.321C1561.69 659.628 1565.42 655.711 1568.24 650.569C1571.18 645.305 1572.64 639.184 1572.64 632.206Z" fill="white"/>
<path d="M1672.3 580.054C1680.26 580.054 1687.36 581.707 1693.6 585.012C1699.97 588.317 1704.93 593.214 1708.48 599.703C1712.03 606.191 1713.8 614.026 1713.8 623.208V682.888H1693.05V626.329C1693.05 617.27 1690.79 610.353 1686.26 605.579C1681.73 600.682 1675.55 598.234 1667.71 598.234C1659.88 598.234 1653.63 600.682 1648.98 605.579C1644.45 610.353 1642.19 617.27 1642.19 626.329V682.888H1621.26V581.707H1642.19V593.275C1645.62 589.113 1649.96 585.869 1655.23 583.543C1660.61 581.217 1666.3 580.054 1672.3 580.054Z" fill="white"/>
<path d="M1764.92 598.784V654.792C1764.92 658.587 1765.78 661.342 1767.5 663.056C1769.33 664.647 1772.39 665.443 1776.68 665.443H1789.53V682.888H1773C1763.58 682.888 1756.36 680.685 1751.34 676.277C1746.32 671.87 1743.81 664.709 1743.81 654.792V598.784H1731.87V581.707H1743.81V556.549H1764.92V581.707H1789.53V598.784H1764.92Z" fill="white"/>
<path d="M1849.54 618.8C1849.54 606.313 1852.42 595.112 1858.17 585.196C1864.05 575.279 1871.95 567.567 1881.86 562.058C1891.9 556.426 1902.86 553.611 1914.73 553.611C1928.32 553.611 1940.38 556.977 1950.9 563.711C1961.55 570.321 1969.27 579.748 1974.04 591.99H1948.88C1945.58 585.257 1940.99 580.238 1935.11 576.932C1929.24 573.627 1922.44 571.974 1914.73 571.974C1906.28 571.974 1898.76 573.872 1892.14 577.667C1885.53 581.462 1880.33 586.91 1876.54 594.01C1872.86 601.11 1871.03 609.374 1871.03 618.8C1871.03 628.227 1872.86 636.49 1876.54 643.591C1880.33 650.691 1885.53 656.2 1892.14 660.118C1898.76 663.913 1906.28 665.81 1914.73 665.81C1922.44 665.81 1929.24 664.158 1935.11 660.852C1940.99 657.547 1945.58 652.528 1948.88 645.794H1974.04C1969.27 658.037 1961.55 667.463 1950.9 674.074C1940.38 680.685 1928.32 683.99 1914.73 683.99C1902.73 683.99 1891.78 681.236 1881.86 675.727C1871.95 670.095 1864.05 662.321 1858.17 652.405C1852.42 642.489 1849.54 631.287 1849.54 618.8Z" fill="white"/>
<path d="M2091.27 629.818C2091.27 633.613 2091.03 637.041 2090.54 640.102H2013.23C2013.84 648.182 2016.84 654.67 2022.23 659.567C2027.62 664.464 2034.23 666.912 2042.06 666.912C2053.32 666.912 2061.28 662.199 2065.93 652.772H2088.52C2085.46 662.077 2079.89 669.728 2071.81 675.727C2063.85 681.603 2053.94 684.541 2042.06 684.541C2032.39 684.541 2023.7 682.399 2015.99 678.114C2008.4 673.707 2002.4 667.585 1997.99 659.75C1993.71 651.793 1991.56 642.611 1991.56 632.206C1991.56 621.8 1993.65 612.679 1997.81 604.844C2002.09 596.887 2008.03 590.766 2015.62 586.481C2023.33 582.196 2032.15 580.054 2042.06 580.054C2051.61 580.054 2060.12 582.135 2067.58 586.297C2075.05 590.46 2080.87 596.336 2085.03 603.926C2089.19 611.394 2091.27 620.025 2091.27 629.818ZM2069.42 623.208C2069.3 615.495 2066.54 609.313 2061.16 604.661C2055.77 600.009 2049.1 597.683 2041.14 597.683C2033.92 597.683 2027.74 600.009 2022.6 604.661C2017.46 609.19 2014.4 615.373 2013.42 623.208H2069.42Z" fill="white"/>
<path d="M2162.92 580.054C2170.88 580.054 2177.98 581.707 2184.22 585.012C2190.58 588.317 2195.54 593.214 2199.09 599.703C2202.64 606.191 2204.42 614.026 2204.42 623.208V682.888H2183.67V626.329C2183.67 617.27 2181.4 610.353 2176.87 605.579C2172.35 600.682 2166.16 598.234 2158.33 598.234C2150.49 598.234 2144.25 600.682 2139.6 605.579C2135.07 610.353 2132.81 617.27 2132.81 626.329V682.888H2111.87V581.707H2132.81V593.275C2136.23 589.113 2140.58 585.869 2145.84 583.543C2151.23 581.217 2156.92 580.054 2162.92 580.054Z" fill="white"/>
<path d="M2255.54 598.784V654.792C2255.54 658.587 2256.4 661.342 2258.11 663.056C2259.95 664.647 2263.01 665.443 2267.29 665.443H2280.15V682.888H2263.62C2254.19 682.888 2246.97 680.685 2241.95 676.277C2236.93 671.87 2234.42 664.709 2234.42 654.792V598.784H2222.49V581.707H2234.42V556.549H2255.54V581.707H2280.15V598.784H2255.54Z" fill="white"/>
<path d="M2392.17 629.818C2392.17 633.613 2391.92 637.041 2391.43 640.102H2314.13C2314.74 648.182 2317.74 654.67 2323.13 659.567C2328.51 664.464 2335.12 666.912 2342.96 666.912C2354.22 666.912 2362.18 662.199 2366.83 652.772H2389.41C2386.35 662.077 2380.78 669.728 2372.71 675.727C2364.75 681.603 2354.83 684.541 2342.96 684.541C2333.29 684.541 2324.6 682.399 2316.88 678.114C2309.29 673.707 2303.3 667.585 2298.89 659.75C2294.6 651.793 2292.46 642.611 2292.46 632.206C2292.46 621.8 2294.54 612.679 2298.71 604.844C2302.99 596.887 2308.93 590.766 2316.52 586.481C2324.23 582.196 2333.04 580.054 2342.96 580.054C2352.51 580.054 2361.01 582.135 2368.48 586.297C2375.95 590.46 2381.76 596.336 2385.93 603.926C2390.09 611.394 2392.17 620.025 2392.17 629.818ZM2370.32 623.208C2370.2 615.495 2367.44 609.313 2362.05 604.661C2356.67 600.009 2350 597.683 2342.04 597.683C2334.82 597.683 2328.64 600.009 2323.49 604.661C2318.35 609.19 2315.29 615.373 2314.31 623.208H2370.32Z" fill="white"/>
<path d="M2433.7 596.397C2436.76 591.255 2440.8 587.277 2445.82 584.461C2450.96 581.523 2457.02 580.054 2464 580.054V601.723H2458.67C2450.47 601.723 2444.23 603.804 2439.95 607.966C2435.78 612.128 2433.7 619.351 2433.7 629.635V682.888H2412.77V581.707H2433.7V596.397Z" fill="white"/>
</svg>
