<svg width="1318" height="747" viewBox="0 0 1318 747" fill="none" xmlns="http://www.w3.org/2000/svg">
<g clip-path="url(#clip0_654_4090)">
<g clip-path="url(#clip1_654_4090)">
<g clip-path="url(#clip2_654_4090)">
<g clip-path="url(#clip3_654_4090)">
<path d="M339.135 14.9999C379.892 14.9999 417.572 25.9493 452.176 47.848C486.78 69.9006 514.465 99.8205 535.226 137.604C543.709 153.038 550.457 174.812 555.474 191.788H429.436C419.794 175.166 407.996 155.861 394.039 145.007C377.429 132.361 359.128 126.036 339.135 126.039H125.738V191.788H13.8501V73.9882C13.8501 57.0254 19.6184 42.9907 31.1519 31.8874C42.6853 20.6302 56.528 14.9999 72.6801 14.9999L339.135 14.9999ZM125.738 680.333C125.738 697.296 120.509 711.331 110.05 722.434C99.7449 733.691 86.1341 739.321 69.2177 739.321C53.069 739.321 39.8436 733.691 29.5383 722.434C19.0795 711.331 13.8501 697.296 13.8501 680.333V562.533H125.738V680.333Z" fill="#103756"/>
<g clip-path="url(#clip4_654_4090)">
<g clip-path="url(#clip5_654_4090)">
<g clip-path="url(#clip6_654_4090)">
<g clip-path="url(#clip7_654_4090)">
<g clip-path="url(#clip8_654_4090)">
<g clip-path="url(#clip9_654_4090)">
<g clip-path="url(#clip10_654_4090)">
<path d="M31.9522 256.564H115.15C127.875 256.564 139.641 259.983 150.446 266.821C161.25 273.707 169.894 283.049 176.377 294.846C182.86 306.644 186.102 319.886 186.102 334.573C186.102 349.26 182.86 362.55 176.377 374.444C169.894 386.386 161.25 395.896 150.446 402.975C139.641 410.102 127.875 413.665 115.15 413.665H45.6384L48.5197 407.886V490.951C48.5197 496.248 46.887 500.63 43.6215 504.097C40.4041 507.612 36.1541 509.37 30.8718 509.37C25.8295 509.37 21.6996 507.612 18.4822 504.097C15.2167 500.63 13.584 496.248 13.584 490.951V274.983C13.584 269.686 15.3848 265.304 18.9864 261.837C22.588 258.322 26.91 256.564 31.9522 256.564ZM45.2782 378.994H115.15C121.392 378.994 127.107 376.948 132.293 372.855C137.432 368.762 141.634 363.345 144.899 356.603C148.117 349.862 149.725 342.518 149.725 334.573C149.725 326.628 148.117 319.405 144.899 312.904C141.634 306.403 137.432 301.154 132.293 297.158C127.107 293.209 121.392 291.235 115.15 291.235H44.9181L48.5197 285.817V383.689L45.2782 378.994ZM244.088 509.37C238.805 509.37 234.483 507.612 231.122 504.097C227.76 500.63 226.08 496.248 226.08 490.951V337.823C226.08 332.526 227.76 328.12 231.122 324.605C234.483 321.138 238.805 319.405 244.088 319.405C249.13 319.405 253.38 321.138 256.837 324.605C260.343 328.12 262.096 332.526 262.096 337.823V378.272L258.494 362.743C260.415 356.001 263.344 349.741 267.282 343.963C271.268 338.184 276.022 333.128 281.545 328.794C287.067 324.461 293.238 321.09 300.057 318.682C306.924 316.275 314.079 315.071 321.523 315.071C327.765 315.071 333.168 316.756 337.73 320.127C342.292 323.498 344.573 327.711 344.573 332.767C344.573 339.268 342.892 344.011 339.531 346.996C336.169 350.03 332.447 351.547 328.366 351.547C324.764 351.547 321.282 350.752 317.921 349.163C314.559 347.622 310.598 346.852 306.036 346.852C300.993 346.852 295.831 348.176 290.549 350.825C285.266 353.473 280.464 357.374 276.142 362.526C271.82 367.727 268.387 373.818 265.841 380.8C263.344 387.782 262.096 395.607 262.096 404.275V490.951C262.096 496.248 260.343 500.63 256.837 504.097C253.38 507.612 249.13 509.37 244.088 509.37ZM526.094 316.515C531.137 316.515 535.387 318.249 538.844 321.716C542.35 325.231 544.103 329.637 544.103 334.934V490.951C544.103 496.248 542.35 500.63 538.844 504.097C535.387 507.612 531.137 509.37 526.094 509.37C520.764 509.37 516.442 507.612 513.129 504.097C509.767 500.63 508.086 496.248 508.086 490.951V464.948L515.29 466.032C515.29 470.366 513.537 475.181 510.031 480.478C506.574 485.775 501.844 490.879 495.841 495.791C489.838 500.75 482.755 504.843 474.591 508.07C466.38 511.344 457.616 512.981 448.3 512.981C431.732 512.981 416.845 508.696 403.639 500.124C390.434 491.601 379.989 479.876 372.305 464.948C364.622 450.021 360.78 433.047 360.78 414.026C360.78 394.524 364.622 377.357 372.305 362.526C379.989 347.743 390.361 336.138 403.423 327.711C416.533 319.284 431.132 315.071 447.219 315.071C457.544 315.071 467.076 316.756 475.816 320.127C484.604 323.498 492.239 327.831 498.722 333.128C505.205 338.425 510.247 344.011 513.849 349.886C517.451 355.809 519.251 361.418 519.251 366.715L508.086 367.799V334.934C508.086 329.878 509.767 325.544 513.129 321.933C516.442 318.321 520.764 316.515 526.094 316.515ZM452.621 479.756C463.859 479.756 473.751 476.866 482.299 471.088C490.847 465.309 497.522 457.412 502.324 447.396C507.126 437.429 509.527 426.305 509.527 414.026C509.527 401.506 507.126 390.31 502.324 380.439C497.522 370.568 490.847 362.743 482.299 356.964C473.751 351.186 463.859 348.297 452.621 348.297C441.577 348.297 431.732 351.186 423.088 356.964C414.444 362.743 407.721 370.568 402.919 380.439C398.117 390.31 395.716 401.506 395.716 414.026C395.716 426.305 398.117 437.429 402.919 447.396C407.721 457.412 414.372 465.309 422.872 471.088C431.42 476.866 441.336 479.756 452.621 479.756ZM689.536 316.154C706.103 316.154 718.949 319.693 728.073 326.772C737.197 333.899 743.632 343.481 747.378 355.52C751.076 367.558 752.925 380.8 752.925 395.246V490.951C752.925 496.248 751.196 500.63 747.738 504.097C744.233 507.612 739.959 509.37 734.916 509.37C729.634 509.37 725.312 507.612 721.951 504.097C718.589 500.63 716.908 496.248 716.908 490.951V395.246C716.908 386.819 715.78 379.115 713.523 372.133C711.218 365.15 707.256 359.613 701.637 355.52C695.971 351.427 688.095 349.38 678.011 349.38C668.647 349.38 660.315 351.427 653.016 355.52C645.668 359.613 640.026 365.15 636.088 372.133C632.102 379.115 630.109 386.819 630.109 395.246V490.951C630.109 496.248 628.381 500.63 624.923 504.097C621.417 507.612 617.143 509.37 612.101 509.37C606.819 509.37 602.497 507.612 599.135 504.097C595.774 500.63 594.093 496.248 594.093 490.951V260.537C594.093 255.24 595.774 250.858 599.135 247.391C602.497 243.876 606.819 242.118 612.101 242.118C617.143 242.118 621.417 243.876 624.923 247.391C628.381 250.858 630.109 255.24 630.109 260.537V359.131L623.626 362.743C625.307 357.446 628.14 352.028 632.126 346.491C636.064 340.953 640.986 335.897 646.893 331.322C652.752 326.748 659.282 323.064 666.486 320.271C673.689 317.527 681.372 316.154 689.536 316.154ZM956.776 316.515C961.819 316.515 966.092 318.249 969.598 321.716C973.056 325.231 974.784 329.637 974.784 334.934V490.951C974.784 496.248 973.056 500.63 969.598 504.097C966.092 507.612 961.819 509.37 956.776 509.37C951.494 509.37 947.172 507.612 943.81 504.097C940.449 500.63 938.768 496.248 938.768 490.951V464.948L945.971 466.032C945.971 470.366 944.243 475.181 940.785 480.478C937.28 485.775 932.525 490.879 926.523 495.791C920.52 500.75 913.437 504.843 905.273 508.07C897.109 511.344 888.345 512.981 878.981 512.981C862.414 512.981 847.527 508.696 834.321 500.124C821.115 491.601 810.671 479.876 802.987 464.948C795.304 450.021 791.462 433.047 791.462 414.026C791.462 394.524 795.304 377.357 802.987 362.526C810.671 347.743 821.067 336.138 834.177 327.711C847.239 319.284 861.814 315.071 877.901 315.071C888.225 315.071 897.782 316.756 906.57 320.127C915.31 323.498 922.921 327.831 929.404 333.128C935.887 338.425 940.929 344.011 944.531 349.886C948.132 355.809 949.933 361.418 949.933 366.715L938.768 367.799V334.934C938.768 329.878 940.449 325.544 943.81 321.933C947.172 318.321 951.494 316.515 956.776 316.515ZM883.303 479.756C894.588 479.756 904.505 476.866 913.053 471.088C921.552 465.309 928.203 457.412 933.006 447.396C937.808 437.429 940.209 426.305 940.209 414.026C940.209 401.506 937.808 390.31 933.006 380.439C928.203 370.568 921.552 362.743 913.053 356.964C904.505 351.186 894.588 348.297 883.303 348.297C872.258 348.297 862.414 351.186 853.77 356.964C845.126 362.743 838.403 370.568 833.601 380.439C828.799 390.31 826.398 401.506 826.398 414.026C826.398 426.305 828.799 437.429 833.601 447.396C838.403 457.412 845.078 465.309 853.626 471.088C862.126 476.866 872.018 479.756 883.303 479.756ZM1119.93 316.154C1137.7 316.154 1151.38 320.536 1160.99 329.3C1170.59 338.112 1176.96 349.982 1180.08 364.91L1174.31 363.104L1176.84 357.325C1179.96 351.065 1184.69 344.733 1191.03 338.329C1197.41 331.973 1205.05 326.676 1213.93 322.438C1222.82 318.249 1232.3 316.154 1242.38 316.154C1258.95 316.154 1271.8 319.693 1280.92 326.772C1290.05 333.899 1296.41 343.409 1300.01 355.303C1303.61 367.245 1305.41 380.559 1305.41 395.246V490.951C1305.41 496.248 1303.73 500.63 1300.37 504.097C1297.01 507.612 1292.69 509.37 1287.4 509.37C1282.36 509.37 1278.09 507.612 1274.58 504.097C1271.13 500.63 1269.4 496.248 1269.4 490.951V395.607C1269.4 387.18 1268.24 379.476 1265.94 372.494C1263.68 365.511 1259.72 359.902 1254.05 355.664C1248.44 351.475 1240.7 349.38 1230.86 349.38C1221.5 349.38 1213.14 351.475 1205.79 355.664C1198.49 359.902 1192.8 365.511 1188.72 372.494C1184.64 379.476 1182.6 387.18 1182.6 395.607V490.951C1182.6 496.248 1180.92 500.63 1177.56 504.097C1174.19 507.612 1169.87 509.37 1164.59 509.37C1159.31 509.37 1154.99 507.612 1151.62 504.097C1148.26 500.63 1146.58 496.248 1146.58 490.951V395.246C1146.58 386.819 1145.43 379.115 1143.12 372.133C1140.87 365.15 1136.98 359.613 1131.45 355.52C1125.93 351.427 1118.25 349.38 1108.4 349.38C1099.04 349.38 1090.76 351.427 1083.55 355.52C1076.35 359.613 1070.76 365.15 1066.77 372.133C1062.83 379.115 1060.86 386.819 1060.86 395.246V490.951C1060.86 496.248 1059.11 500.63 1055.6 504.097C1052.15 507.612 1047.9 509.37 1042.85 509.37C1037.57 509.37 1033.25 507.612 1029.89 504.097C1026.53 500.63 1024.85 496.248 1024.85 490.951V337.823C1024.85 332.526 1026.53 328.12 1029.89 324.605C1033.25 321.138 1037.57 319.405 1042.85 319.405C1047.9 319.405 1052.15 321.138 1055.6 324.605C1059.11 328.12 1060.86 332.526 1060.86 337.823V359.131L1054.02 363.104C1055.7 357.807 1058.46 352.39 1062.3 346.852C1066.15 341.314 1071 336.258 1076.85 331.684C1082.76 327.109 1089.32 323.377 1096.52 320.488C1103.72 317.599 1111.53 316.154 1119.93 316.154Z" fill="#103756"/>
</g>
</g>
<g clip-path="url(#clip11_654_4090)">
<g clip-path="url(#clip12_654_4090)">
<path d="M242.296 590.404C241.161 590.459 239.169 590.487 236.32 590.487C233.483 590.487 229.556 590.125 224.54 589.401V609.675H217.476V548.493C225.545 547.769 233.568 547.408 241.546 547.408C248.254 547.408 252.946 548.866 255.625 551.781C257.906 554.248 259.046 558.32 259.046 563.998V568.733C259.046 573.118 258.547 576.861 257.548 579.963C255.415 586.442 250.33 589.922 242.296 590.404ZM241.836 553.195C234.244 553.195 228.478 553.343 224.54 553.639V583.745C229.386 584.359 233.704 584.666 237.495 584.666C241.274 584.666 243.986 584.403 245.632 583.877C247.278 583.362 248.56 582.485 249.479 581.246C251.034 579.163 251.812 575.02 251.812 568.816V563.834C251.812 560.008 251.034 557.279 249.479 555.645C247.981 554.012 245.433 553.195 241.836 553.195ZM297.638 610.48H295.068C285.205 610.48 278.697 607.482 275.542 601.486C273.681 598.012 272.586 593.369 272.256 587.56C272.109 584.83 272.035 581.86 272.035 578.648C272.035 575.436 272.137 572.389 272.342 569.506C272.535 566.634 272.915 564.036 273.482 561.712C274.05 559.378 274.85 557.322 275.882 555.547C276.926 553.76 278.294 552.269 279.985 551.074C283.469 548.663 288.497 547.457 295.068 547.457H297.638C307.92 547.457 314.503 550.132 317.385 555.481C319.19 558.824 320.2 563.483 320.415 569.457C320.529 572.373 320.586 575.453 320.586 578.697C320.586 581.953 320.5 584.951 320.33 587.691C320.171 590.443 319.825 592.98 319.292 595.304C318.77 597.628 318.004 599.727 316.994 601.602C315.984 603.476 314.616 605.071 312.891 606.386C309.35 609.116 304.266 610.48 297.638 610.48ZM295.068 604.693H297.57C300.612 604.693 303.137 604.375 305.145 603.739C307.154 603.092 308.743 601.969 309.912 600.368C312.068 597.398 313.146 591.698 313.146 583.268V578.928C313.146 574.883 313.039 571.282 312.823 568.125C312.596 564.968 312 562.304 311.035 560.134C309.038 555.64 304.714 553.393 298.064 553.393H294.574C287.81 553.393 283.486 555.492 281.602 559.69C280.411 562.376 279.758 565.538 279.645 569.177C279.542 572.817 279.491 576.067 279.491 578.928V583.268C279.491 591.161 280.706 596.724 283.134 599.957C285.495 603.114 289.473 604.693 295.068 604.693ZM337.864 609.675V548.263H344.929V603.772H370.123V609.675H337.864ZM392.066 609.675L392.015 587.001L371.281 548.263H379.009L392.611 574.636L395.675 581.41L398.705 574.505L412.017 548.263H419.831L399.08 587.001L399.046 609.675H392.066ZM430.164 609.675V548.263H466.696V554.198H437.229V578.319H462.798V584.222H437.229V609.675H430.164ZM471.888 609.675L492.708 548.263H502.394L524.626 609.675H517.102L510.786 591.654H485.183L479.208 609.675H471.888ZM487.107 585.916H508.795L497.576 553.672L496.283 558.26L487.107 585.916ZM575.168 563.998C575.168 572.241 571.94 576.774 565.482 577.596V577.727C569.477 578.012 572.456 579.108 574.419 581.016C576.689 583.263 577.824 586.518 577.824 590.782C577.824 595.057 577.319 598.373 576.309 600.73C575.299 603.076 573.892 604.906 572.087 606.222C569.012 608.524 564.177 609.675 557.583 609.675H536.355V548.46C544.027 547.758 550.354 547.408 555.336 547.408C560.33 547.408 563.99 547.78 566.316 548.526C568.643 549.26 570.459 550.323 571.764 551.716C574.034 554.149 575.168 558.243 575.168 563.998ZM543.42 575.672H552.766C558.338 575.672 562.202 574.91 564.359 573.386C566.821 571.676 568.053 568.492 568.053 563.834V562.995C568.053 559.4 567.236 556.84 565.601 555.316C563.967 553.826 561.187 553.08 557.26 553.08C553.957 553.08 551.154 553.146 548.85 553.278L543.42 553.59V575.672ZM543.42 603.969H558.452C562.526 603.969 565.437 603.224 567.185 601.733C569.375 599.826 570.47 596.422 570.47 591.522C570.47 585.855 568.325 582.539 564.035 581.575C562.73 581.279 561.317 581.131 559.796 581.131H543.42V603.969ZM639.074 590.404C637.939 590.459 635.953 590.487 633.116 590.487C630.278 590.487 626.352 590.125 621.336 589.401V609.675H614.271V548.493C622.329 547.769 630.347 547.408 638.325 547.408C645.032 547.408 649.73 548.866 652.42 551.781C654.69 554.248 655.825 558.32 655.825 563.998V568.733C655.825 573.118 655.325 576.861 654.327 579.963C652.193 586.442 647.109 589.922 639.074 590.404ZM638.614 553.195C631.022 553.195 625.262 553.343 621.336 553.639V583.745C626.181 584.359 630.494 584.666 634.273 584.666C638.064 584.666 640.782 584.403 642.427 583.877C644.073 583.362 645.355 582.485 646.275 581.246C647.818 579.163 648.59 575.02 648.59 568.816V563.834C648.59 560.008 647.818 557.279 646.275 555.645C644.777 554.012 642.223 553.195 638.614 553.195ZM670.958 609.675V548.46C679.958 547.791 687.522 547.457 693.65 547.457H694.467C701.152 547.457 705.839 548.898 708.529 551.781C710.764 554.281 711.882 558.353 711.882 563.998C711.882 571.222 710.815 576.598 708.682 580.128C706.492 583.712 702.866 585.959 697.804 586.869C698.746 587.998 699.671 589.177 700.579 590.404L703.03 593.824L713.959 609.675H705.652L696.102 595.14C693.435 591.237 691.466 588.656 690.195 587.395H689.735C687.772 587.373 685.876 587.335 684.049 587.28L678.023 587.034V609.675H670.958ZM678.023 553.557V581.608C680.928 581.75 685.496 581.821 691.727 581.821C696.856 581.821 700.346 580.429 702.196 577.645C703.785 575.212 704.579 570.953 704.579 564.869C704.579 559.761 703.399 556.418 701.038 554.84C699.654 553.908 698.139 553.387 696.493 553.278C694.848 553.168 693.406 553.113 692.169 553.113C690.932 553.113 689.741 553.119 688.594 553.13C687.448 553.141 686.308 553.162 685.173 553.195C684.027 553.217 682.875 553.256 681.717 553.31L678.023 553.557ZM728.599 609.675V548.263H735.613V609.675H728.599ZM770.902 609.708L749.027 548.263H756.688L772.723 595.025L774.885 603.246L777.252 595.025L792.93 548.263H800.488L779.09 609.708H770.902ZM805.102 609.675L825.921 548.263H835.607L857.84 609.675H850.315L844 591.654H818.397L812.405 609.675H805.102ZM820.303 585.916H842.008L830.773 553.672L829.496 558.26L820.303 585.916ZM877.195 609.675V554.198H860.24V548.263H901.811V554.198H884.26V609.675H877.195ZM912.11 609.675V548.263H948.131V554.198H919.175V575.392H942.53V581.295H919.175V603.772H949.255V609.675H912.11ZM982.961 609.675V548.263H990.025V603.772H1015.2V609.675H982.961ZM1026.51 609.675V548.263H1033.54V609.675H1026.51ZM1049.45 609.675L1059.26 548.263H1070.1L1084.57 593.611L1087.02 603.41L1089.39 593.578L1103.35 548.263H1113.7L1123.96 609.675H1116.9L1109.17 563.274L1108.01 552.439L1105.48 563.357L1091.13 609.642H1082.94L1067.97 563.11L1065.03 552.439L1063.62 563.192L1056.6 609.675H1049.45ZM1140.14 609.675V548.263H1147.15V609.675H1140.14ZM1175.29 609.675V554.198H1158.33V548.263H1199.89V554.198H1182.35V609.675H1175.29ZM1210.19 609.675V548.263H1246.23V554.198H1217.25V575.392H1240.61V581.295H1217.25V603.772H1247.35V609.675H1210.19ZM1259.84 609.675V548.624C1259.84 548.624 1261.93 548.476 1266.09 548.18C1272.32 547.698 1277.29 547.457 1281 547.457C1284.72 547.457 1287.68 547.594 1289.91 547.868C1292.12 548.153 1294.07 548.635 1295.75 549.315C1297.41 550.006 1298.84 550.937 1300.02 552.11C1301.2 553.283 1302.16 554.779 1302.91 556.599C1304.32 560.008 1305.02 565.067 1305.02 571.775V578.007C1305.02 585.954 1304.42 591.988 1303.2 596.11C1301.78 600.867 1299.25 604.293 1295.59 606.386C1291.83 608.579 1286.3 609.675 1279.01 609.675H1259.84ZM1295.13 558.013C1294.13 556.489 1292.69 555.338 1290.81 554.56C1288.93 553.782 1286.03 553.393 1282.13 553.393C1278.22 553.393 1273.16 553.623 1266.93 554.083V603.936H1280.14C1285.29 603.936 1289.11 603.12 1291.61 601.486C1294.05 599.908 1295.68 597.189 1296.51 593.331C1297.23 590.174 1297.58 585.066 1297.58 578.007V571.742C1297.58 565.078 1296.77 560.501 1295.13 558.013Z" fill="#103756"/>
</g>
</g>
</g>
</g>
</g>
</g>
</g>
</g>
</g>
</g>
</g>
<defs>
<clipPath id="clip0_654_4090">
<rect width="1318" height="747" fill="white"/>
</clipPath>
<clipPath id="clip1_654_4090">
<rect width="1295" height="809" fill="white" transform="translate(12 15)"/>
</clipPath>
<clipPath id="clip2_654_4090">
<rect width="1291.9" height="809.655" fill="white" transform="translate(13.5493 14.6725)"/>
</clipPath>
<clipPath id="clip3_654_4090">
<rect width="1291.9" height="809.655" fill="white" transform="translate(13.5493 14.6725)"/>
</clipPath>
<clipPath id="clip4_654_4090">
<rect width="1291.9" height="388.155" fill="white" transform="translate(13.5493 225.422)"/>
</clipPath>
<clipPath id="clip5_654_4090">
<rect width="1291.9" height="388.155" fill="white" transform="translate(13.5493 242.118)"/>
</clipPath>
<clipPath id="clip6_654_4090">
<rect width="1291.9" height="388.155" fill="white" transform="translate(13.5493 242.118)"/>
</clipPath>
<clipPath id="clip7_654_4090">
<rect width="1291.9" height="388.155" fill="white" transform="translate(13.5493 242.118)"/>
</clipPath>
<clipPath id="clip8_654_4090">
<rect width="1291.9" height="388.155" fill="white" transform="translate(13.5493 242.118)"/>
</clipPath>
<clipPath id="clip9_654_4090">
<rect width="1291.9" height="270.863" fill="white" transform="translate(13.5493 242.118)"/>
</clipPath>
<clipPath id="clip10_654_4090">
<rect width="1291.9" height="270.863" fill="white" transform="translate(13.5493 242.118)"/>
</clipPath>
<clipPath id="clip11_654_4090">
<rect width="1087.8" height="63.0727" fill="white" transform="translate(217.35 547.408)"/>
</clipPath>
<clipPath id="clip12_654_4090">
<rect width="1087.8" height="63.0727" fill="white" transform="translate(217.35 547.408)"/>
</clipPath>
</defs>
</svg>
