<svg width="95" height="144" viewBox="0 0 95 144" fill="none" xmlns="http://www.w3.org/2000/svg">
<path d="M74.967 78.4924L75.701 83.6981" stroke="white" stroke-opacity="0.15" stroke-width="2" stroke-linecap="round"/>
<path d="M81.0348 59.9738L84.2137 65.141" stroke="white" stroke-opacity="0.15" stroke-width="2" stroke-linecap="round"/>
<path d="M88.9408 44.3611L92.1197 49.5283" stroke="white" stroke-opacity="0.15" stroke-width="2" stroke-linecap="round"/>
<path d="M62.141 102.661L66.6896 101.611" stroke="white" stroke-opacity="0.15" stroke-width="2" stroke-linecap="round"/>
<path d="M45.5259 134.715L49.7972 136.767" stroke="white" stroke-opacity="0.15" stroke-width="2" stroke-linecap="round"/>
<path d="M52.9326 118.457L57.861 120.825" stroke="white" stroke-opacity="0.15" stroke-width="2" stroke-linecap="round"/>
<path d="M-11.7939 25.0753L-0.580368 22.7795" stroke="white" stroke-opacity="0.15" stroke-width="2" stroke-linecap="round"/>
<path d="M-3.26917 7.33327L9.27146 6.48396" stroke="white" stroke-opacity="0.15" stroke-width="2" stroke-linecap="round"/>
<path d="M15.2474 125.554L13.3631 114.921" stroke="white" stroke-opacity="0.15" stroke-width="2" stroke-linecap="round"/>
<path d="M23.8591 107.723L21.9748 97.0891" stroke="white" stroke-opacity="0.15" stroke-width="2" stroke-linecap="round"/>
<path d="M35.5803 70.4056L44.8214 64.8176" stroke="white" stroke-opacity="0.15" stroke-width="2" stroke-linecap="round"/>
<path d="M42.8257 50.2765L53.6114 49.7373" stroke="white" stroke-opacity="0.15" stroke-width="2" stroke-linecap="round"/>
<path d="M52.1155 30.9434L62.677 33.1968" stroke="white" stroke-opacity="0.15" stroke-width="2" stroke-linecap="round"/>
<path d="M69.9227 37.649L78.6325 44.0336" stroke="white" stroke-opacity="0.15" stroke-width="2" stroke-linecap="round"/>
<path d="M61.0022 56.2147L71.4958 58.7654" stroke="white" stroke-opacity="0.15" stroke-width="2" stroke-linecap="round"/>
<path d="M52.5663 75.454L63.1246 73.1858" stroke="white" stroke-opacity="0.15" stroke-width="2" stroke-linecap="round"/>
<path d="M48.6194 88.8022L50.412 99.4516" stroke="white" stroke-opacity="0.15" stroke-width="2" stroke-linecap="round"/>
<path d="M38.6619 107.272L45.4499 115.671" stroke="white" stroke-opacity="0.15" stroke-width="2" stroke-linecap="round"/>
<path d="M30.3203 91.4152L34.2671 81.363" stroke="white" stroke-opacity="0.15" stroke-width="2" stroke-linecap="round"/>
<path d="M36.8251 133.644L30.0092 125.268" stroke="white" stroke-opacity="0.15" stroke-width="2" stroke-linecap="round"/>
<path d="M3.94287 99.7705C3.94411 99.1872 5.66206 91.2686 6.52088 87.3822" stroke="white" stroke-opacity="0.15" stroke-width="2" stroke-linecap="round"/>
<path d="M10.1877 81.7414C10.3522 81.1818 14.5747 75.4319 16.6655 72.6269" stroke="white" stroke-opacity="0.15" stroke-width="2" stroke-linecap="round"/>
<path d="M-1.07935 53.2761L9.74161 46.7475" stroke="white" stroke-opacity="0.15" stroke-width="2" stroke-linecap="round"/>
<path d="M17.1493 61.6304L27.9702 55.1017" stroke="white" stroke-opacity="0.15" stroke-width="2" stroke-linecap="round"/>
<path d="M7.63074 33.6001L18.3063 29.4714" stroke="white" stroke-opacity="0.15" stroke-width="2" stroke-linecap="round"/>
<path d="M24.8448 42.2478L36.1464 40.4342" stroke="white" stroke-opacity="0.15" stroke-width="2" stroke-linecap="round"/>
<path d="M14.4731 15.8586L27.0138 15.0093" stroke="white" stroke-opacity="0.15" stroke-width="2" stroke-linecap="round"/>
<path d="M33.3766 21.1258L43.6126 23.3895" stroke="white" stroke-opacity="0.15" stroke-width="2" stroke-linecap="round"/>
</svg>
