<svg width="29" height="28" viewBox="0 0 29 28" fill="none" xmlns="http://www.w3.org/2000/svg">
<path d="M8.40023 12.5883C10.0826 15.89 12.793 18.585 16.0992 20.2767L18.6694 17.71C18.9849 17.395 19.4522 17.29 19.8611 17.43C21.1696 17.8617 22.5832 18.095 24.0319 18.095C24.6744 18.095 25.2001 18.62 25.2001 19.2617V23.3333C25.2001 23.975 24.6744 24.5 24.0319 24.5C13.0617 24.5 4.17105 15.6217 4.17105 4.66667C4.17105 4.025 4.69678 3.5 5.33933 3.5H9.42832C10.0709 3.5 10.5966 4.025 10.5966 4.66667C10.5966 6.125 10.8303 7.525 11.2625 8.83167C11.391 9.24 11.2976 9.695 10.9705 10.0217L8.40023 12.5883Z" fill="white"/>
</svg>
