<svg width="1374" height="747" viewBox="0 0 1374 747" fill="none" xmlns="http://www.w3.org/2000/svg">
<g clip-path="url(#clip0_640_3308)">
<g clip-path="url(#clip1_640_3308)">
<g clip-path="url(#clip2_640_3308)">
<path d="M473.258 114C500.451 114 525.59 121.309 548.677 135.926C571.764 150.646 590.235 170.617 604.087 195.837C609.746 206.139 614.248 220.673 617.596 232.004H533.505C527.072 220.909 519.201 208.023 509.889 200.778C498.808 192.337 486.597 188.116 473.258 188.118H330.884V232.004H256.234V153.374C256.234 142.052 260.083 132.684 267.778 125.272C275.473 117.758 284.708 114 295.485 114H473.258ZM330.884 558.104C330.884 569.426 327.395 578.794 320.417 586.206C313.542 593.72 304.461 597.478 293.175 597.478C282.4 597.478 273.577 593.72 266.701 586.206C259.723 578.794 256.234 569.426 256.234 558.104V479.473H330.884V558.104Z" fill="#103756"/>
<g clip-path="url(#clip3_640_3308)">
<g clip-path="url(#clip4_640_3308)">
<g clip-path="url(#clip5_640_3308)">
<g clip-path="url(#clip6_640_3308)">
<g clip-path="url(#clip7_640_3308)">
<g clip-path="url(#clip8_640_3308)">
<g clip-path="url(#clip9_640_3308)">
<path d="M268.312 275.242H323.82C332.31 275.242 340.16 277.524 347.369 282.088C354.577 286.684 360.344 292.92 364.67 300.795C368.995 308.67 371.158 317.509 371.158 327.312C371.158 337.115 368.995 345.986 364.67 353.926C360.344 361.897 354.577 368.245 347.369 372.97C340.16 377.727 332.31 380.105 323.82 380.105H277.443L279.366 376.248V431.693C279.366 435.229 278.276 438.154 276.098 440.468C273.951 442.814 271.116 443.987 267.591 443.987C264.227 443.987 261.472 442.814 259.325 440.468C257.146 438.154 256.057 435.229 256.057 431.693V287.536C256.057 284.001 257.259 281.076 259.662 278.761C262.064 276.415 264.948 275.242 268.312 275.242ZM277.203 356.963H323.82C327.985 356.963 331.798 355.597 335.258 352.865C338.686 350.133 341.489 346.517 343.668 342.017C345.815 337.517 346.888 332.615 346.888 327.312C346.888 322.009 345.815 317.187 343.668 312.848C341.489 308.509 338.686 305.005 335.258 302.338C331.798 299.702 327.985 298.384 323.82 298.384H276.963L279.366 294.768V360.097L277.203 356.963ZM409.845 443.987C406.321 443.987 403.437 442.814 401.194 440.468C398.952 438.154 397.83 435.229 397.83 431.693V329.482C397.83 325.946 398.952 323.005 401.194 320.659C403.437 318.344 406.321 317.187 409.845 317.187C413.209 317.187 416.045 318.344 418.351 320.659C420.69 323.005 421.86 325.946 421.86 329.482V356.481L419.457 346.115C420.738 341.615 422.693 337.437 425.32 333.58C427.979 329.723 431.151 326.348 434.835 323.455C438.52 320.562 442.637 318.312 447.187 316.705C451.768 315.098 456.542 314.294 461.508 314.294C465.673 314.294 469.278 315.419 472.321 317.669C475.365 319.919 476.887 322.732 476.887 326.107C476.887 330.446 475.765 333.612 473.523 335.605C471.28 337.63 468.797 338.642 466.074 338.642C463.671 338.642 461.348 338.112 459.105 337.051C456.862 336.022 454.219 335.508 451.175 335.508C447.811 335.508 444.367 336.392 440.843 338.16C437.318 339.928 434.115 342.531 431.231 345.97C428.348 349.442 426.057 353.508 424.359 358.168C422.693 362.829 421.86 368.052 421.86 373.837V431.693C421.86 435.229 420.69 438.154 418.351 440.468C416.045 442.814 413.209 443.987 409.845 443.987ZM597.995 315.259C601.359 315.259 604.194 316.416 606.501 318.73C608.84 321.076 610.009 324.017 610.009 327.553V431.693C610.009 435.229 608.84 438.154 606.501 440.468C604.194 442.814 601.359 443.987 597.995 443.987C594.438 443.987 591.555 442.814 589.344 440.468C587.101 438.154 585.98 435.229 585.98 431.693V414.336L590.786 415.06C590.786 417.952 589.616 421.167 587.278 424.702C584.971 428.238 581.815 431.645 577.81 434.923C573.805 438.234 569.079 440.966 563.633 443.12C558.154 445.305 552.307 446.398 546.091 446.398C535.038 446.398 525.106 443.537 516.295 437.816C507.484 432.127 500.516 424.3 495.389 414.336C490.263 404.372 487.7 393.042 487.7 380.346C487.7 367.329 490.263 355.87 495.389 345.97C500.516 336.103 507.436 328.357 516.151 322.732C524.897 317.107 534.637 314.294 545.37 314.294C552.259 314.294 558.619 315.419 564.45 317.669C570.313 319.919 575.407 322.812 579.732 326.348C584.058 329.883 587.422 333.612 589.825 337.533C592.228 341.487 593.429 345.231 593.429 348.767L585.98 349.49V327.553C585.98 324.178 587.101 321.285 589.344 318.875C591.555 316.464 594.438 315.259 597.995 315.259ZM548.975 424.22C556.472 424.22 563.072 422.292 568.775 418.434C574.478 414.577 578.931 409.306 582.135 402.621C585.339 395.967 586.941 388.542 586.941 380.346C586.941 371.989 585.339 364.516 582.135 357.927C578.931 351.338 574.478 346.115 568.775 342.258C563.072 338.401 556.472 336.472 548.975 336.472C541.606 336.472 535.038 338.401 529.271 342.258C523.504 346.115 519.018 351.338 515.814 357.927C512.61 364.516 511.008 371.989 511.008 380.346C511.008 388.542 512.61 395.967 515.814 402.621C519.018 409.306 523.456 414.577 529.127 418.434C534.83 422.292 541.446 424.22 548.975 424.22ZM707.04 315.018C718.093 315.018 726.664 317.38 732.751 322.105C738.839 326.862 743.132 333.258 745.631 341.294C748.098 349.329 749.332 358.168 749.332 367.811V431.693C749.332 435.229 748.178 438.154 745.871 440.468C743.532 442.814 740.681 443.987 737.317 443.987C733.793 443.987 730.909 442.814 728.666 440.468C726.424 438.154 725.302 435.229 725.302 431.693V367.811C725.302 362.186 724.549 357.043 723.043 352.383C721.506 347.722 718.862 344.026 715.114 341.294C711.333 338.562 706.079 337.196 699.35 337.196C693.103 337.196 687.544 338.562 682.674 341.294C677.772 344.026 674.008 347.722 671.38 352.383C668.721 357.043 667.391 362.186 667.391 367.811V431.693C667.391 435.229 666.238 438.154 663.931 440.468C661.592 442.814 658.741 443.987 655.377 443.987C651.852 443.987 648.969 442.814 646.726 440.468C644.483 438.154 643.362 435.229 643.362 431.693V277.894C643.362 274.358 644.483 271.433 646.726 269.119C648.969 266.773 651.852 265.599 655.377 265.599C658.741 265.599 661.592 266.773 663.931 269.119C666.238 271.433 667.391 274.358 667.391 277.894V343.704L663.066 346.115C664.188 342.579 666.078 338.963 668.737 335.267C671.364 331.571 674.648 328.196 678.589 325.142C682.498 322.089 686.855 319.63 691.661 317.766C696.467 315.934 701.593 315.018 707.04 315.018ZM885.338 315.259C888.702 315.259 891.553 316.416 893.892 318.73C896.199 321.076 897.352 324.017 897.352 327.553V431.693C897.352 435.229 896.199 438.154 893.892 440.468C891.553 442.814 888.702 443.987 885.338 443.987C881.813 443.987 878.93 442.814 876.687 440.468C874.444 438.154 873.323 435.229 873.323 431.693V414.336L878.129 415.06C878.129 417.952 876.975 421.167 874.669 424.702C872.33 428.238 869.158 431.645 865.153 434.923C861.148 438.234 856.422 440.966 850.976 443.12C845.529 445.305 839.682 446.398 833.434 446.398C822.381 446.398 812.449 443.537 803.638 437.816C794.827 432.127 787.859 424.3 782.732 414.336C777.606 404.372 775.043 393.042 775.043 380.346C775.043 367.329 777.606 355.87 782.732 345.97C787.859 336.103 794.795 328.357 803.542 322.732C812.256 317.107 821.98 314.294 832.713 314.294C839.602 314.294 845.978 315.419 851.841 317.669C857.672 319.919 862.75 322.812 867.075 326.348C871.401 329.883 874.765 333.612 877.168 337.533C879.571 341.487 880.772 345.231 880.772 348.767L873.323 349.49V327.553C873.323 324.178 874.444 321.285 876.687 318.875C878.93 316.464 881.813 315.259 885.338 315.259ZM836.318 424.22C843.847 424.22 850.463 422.292 856.166 418.434C861.837 414.577 866.274 409.306 869.478 402.621C872.682 395.967 874.284 388.542 874.284 380.346C874.284 371.989 872.682 364.516 869.478 357.927C866.274 351.338 861.837 346.115 856.166 342.258C850.463 338.401 843.847 336.472 836.318 336.472C828.949 336.472 822.381 338.401 816.614 342.258C810.847 346.115 806.361 351.338 803.157 357.927C799.953 364.516 798.351 371.989 798.351 380.346C798.351 388.542 799.953 395.967 803.157 402.621C806.361 409.306 810.815 414.577 816.518 418.434C822.188 422.292 828.789 424.22 836.318 424.22ZM994.191 315.018C1006.05 315.018 1015.18 317.943 1021.58 323.792C1027.99 329.674 1032.24 337.597 1034.32 347.561L1030.47 346.356L1032.16 342.499C1034.24 338.321 1037.4 334.094 1041.62 329.819C1045.89 325.576 1050.98 322.041 1056.91 319.212C1062.83 316.416 1069.16 315.018 1075.89 315.018C1086.94 315.018 1095.51 317.38 1101.6 322.105C1107.69 326.862 1111.93 333.21 1114.34 341.149C1116.74 349.12 1117.94 358.008 1117.94 367.811V431.693C1117.94 435.229 1116.82 438.154 1114.58 440.468C1112.33 442.814 1109.45 443.987 1105.93 443.987C1102.56 443.987 1099.71 442.814 1097.37 440.468C1095.07 438.154 1093.91 435.229 1093.91 431.693V368.052C1093.91 362.427 1093.14 357.284 1091.61 352.624C1090.1 347.963 1087.46 344.219 1083.68 341.39C1079.93 338.594 1074.77 337.196 1068.2 337.196C1061.95 337.196 1056.38 338.594 1051.48 341.39C1046.61 344.219 1042.81 347.963 1040.09 352.624C1037.36 357.284 1036 362.427 1036 368.052V431.693C1036 435.229 1034.88 438.154 1032.64 440.468C1030.39 442.814 1027.51 443.987 1023.99 443.987C1020.46 443.987 1017.58 442.814 1015.34 440.468C1013.09 438.154 1011.97 435.229 1011.97 431.693V367.811C1011.97 362.186 1011.2 357.043 1009.67 352.383C1008.16 347.722 1005.56 344.026 1001.88 341.294C998.195 338.562 993.069 337.196 986.501 337.196C980.253 337.196 974.727 338.562 969.921 341.294C965.115 344.026 961.382 347.722 958.723 352.383C956.096 357.043 954.782 362.186 954.782 367.811V431.693C954.782 435.229 953.613 438.154 951.274 440.468C948.967 442.814 946.132 443.987 942.768 443.987C939.243 443.987 936.36 442.814 934.117 440.468C931.874 438.154 930.753 435.229 930.753 431.693V329.482C930.753 325.946 931.874 323.005 934.117 320.659C936.36 318.344 939.243 317.187 942.768 317.187C946.132 317.187 948.967 318.344 951.274 320.659C953.613 323.005 954.782 325.946 954.782 329.482V343.704L950.217 346.356C951.338 342.82 953.18 339.204 955.744 335.508C958.307 331.812 961.543 328.437 965.451 325.383C969.392 322.33 973.766 319.839 978.571 317.91C983.377 315.982 988.584 315.018 994.191 315.018Z" fill="#103756"/>
</g>
</g>
<g clip-path="url(#clip10_640_3308)">
<g clip-path="url(#clip11_640_3308)">
<path d="M408.649 498.077C407.892 498.114 406.563 498.132 404.662 498.132C402.769 498.132 400.149 497.89 396.803 497.408V510.94H392.089V470.102C397.473 469.619 402.826 469.377 408.149 469.377C412.624 469.377 415.755 470.35 417.542 472.297C419.064 473.943 419.825 476.661 419.825 480.451V483.612C419.825 486.539 419.491 489.037 418.825 491.108C417.402 495.432 414.01 497.755 408.649 498.077ZM408.342 473.24C403.277 473.24 399.43 473.339 396.803 473.537V493.632C400.036 494.042 402.917 494.247 405.446 494.247C407.967 494.247 409.777 494.071 410.875 493.72C411.973 493.376 412.828 492.791 413.442 491.964C414.479 490.574 414.998 487.808 414.998 483.667V480.341C414.998 477.788 414.479 475.966 413.442 474.876C412.442 473.785 410.742 473.24 408.342 473.24ZM445.572 511.478H443.857C437.277 511.478 432.935 509.476 430.83 505.474C429.588 503.155 428.858 500.056 428.638 496.178C428.54 494.356 428.49 492.374 428.49 490.23C428.49 488.086 428.559 486.052 428.695 484.128C428.824 482.211 429.077 480.477 429.456 478.925C429.834 477.367 430.368 475.995 431.057 474.81C431.754 473.617 432.666 472.622 433.794 471.825C436.119 470.215 439.473 469.41 443.857 469.41H445.572C452.432 469.41 456.824 471.195 458.747 474.766C459.951 476.998 460.625 480.107 460.769 484.095C460.845 486.041 460.882 488.097 460.882 490.263C460.882 492.436 460.826 494.437 460.712 496.266C460.606 498.103 460.375 499.796 460.019 501.348C459.671 502.899 459.16 504.3 458.486 505.551C457.812 506.802 456.9 507.867 455.749 508.745C453.386 510.567 449.994 511.478 445.572 511.478ZM443.857 507.614H445.527C447.556 507.614 449.241 507.402 450.581 506.978C451.921 506.546 452.981 505.796 453.761 504.728C455.2 502.745 455.919 498.94 455.919 493.314V490.416C455.919 487.717 455.847 485.313 455.703 483.206C455.552 481.099 455.154 479.321 454.511 477.872C453.178 474.872 450.293 473.372 445.856 473.372H443.528C439.015 473.372 436.13 474.773 434.873 477.576C434.078 479.368 433.643 481.479 433.567 483.908C433.499 486.337 433.465 488.507 433.465 490.416V493.314C433.465 498.582 434.275 502.295 435.896 504.454C437.471 506.561 440.124 507.614 443.857 507.614ZM472.41 510.94V469.948H477.124V507H493.933V510.94H472.41ZM508.573 510.94L508.539 495.805L494.705 469.948H499.862L508.936 487.552L510.981 492.074L513.002 487.464L521.884 469.948H527.097L513.252 495.805L513.23 510.94H508.573ZM533.991 510.94V469.948H558.365V473.91H538.705V490.01H555.764V493.95H538.705V510.94H533.991ZM561.829 510.94L575.719 469.948H582.182L597.015 510.94H591.995L587.781 498.911H570.699L566.713 510.94H561.829ZM571.983 495.081H586.452L578.967 473.559L578.104 476.621L571.983 495.081ZM630.735 480.451C630.735 485.953 628.581 488.979 624.273 489.527V489.615C626.938 489.805 628.926 490.537 630.236 491.81C631.75 493.31 632.507 495.483 632.507 498.329C632.507 501.183 632.17 503.396 631.496 504.969C630.822 506.535 629.884 507.757 628.68 508.635C626.628 510.172 623.402 510.94 619.003 510.94H604.84V470.08C609.959 469.611 614.18 469.377 617.504 469.377C620.835 469.377 623.277 469.626 624.829 470.123C626.382 470.614 627.593 471.323 628.464 472.253C629.978 473.877 630.735 476.61 630.735 480.451ZM609.553 488.243H615.789C619.507 488.243 622.085 487.735 623.523 486.718C625.166 485.576 625.988 483.451 625.988 480.341V479.782C625.988 477.382 625.443 475.673 624.352 474.656C623.262 473.661 621.407 473.164 618.787 473.164C616.584 473.164 614.714 473.207 613.177 473.295L609.553 473.504V488.243ZM609.553 507.131H619.582C622.3 507.131 624.243 506.634 625.409 505.639C626.87 504.366 627.601 502.094 627.601 498.823C627.601 495.041 626.17 492.827 623.308 492.183C622.437 491.986 621.494 491.887 620.48 491.887H609.553V507.131ZM673.372 498.077C672.615 498.114 671.29 498.132 669.397 498.132C667.504 498.132 664.884 497.89 661.537 497.408V510.94H656.824V470.102C662.2 469.619 667.549 469.377 672.872 469.377C677.347 469.377 680.482 470.35 682.276 472.297C683.791 473.943 684.548 476.661 684.548 480.451V483.612C684.548 486.539 684.215 489.037 683.548 491.108C682.125 495.432 678.733 497.755 673.372 498.077ZM673.065 473.24C668 473.24 664.157 473.339 661.537 473.537V493.632C664.77 494.042 667.648 494.247 670.169 494.247C672.698 494.247 674.511 494.071 675.609 493.72C676.707 493.376 677.563 492.791 678.176 491.964C679.206 490.574 679.721 487.808 679.721 483.667V480.341C679.721 477.788 679.206 475.966 678.176 474.876C677.177 473.785 675.473 473.24 673.065 473.24ZM694.645 510.94V470.08C700.649 469.633 705.696 469.41 709.784 469.41H710.33C714.789 469.41 717.916 470.372 719.711 472.297C721.203 473.965 721.948 476.683 721.948 480.451C721.948 485.273 721.237 488.862 719.813 491.218C718.352 493.61 715.933 495.11 712.556 495.717C713.184 496.471 713.801 497.258 714.407 498.077L716.042 500.36L723.334 510.94H717.791L711.42 501.238C709.641 498.633 708.327 496.91 707.479 496.069H707.172C705.862 496.054 704.598 496.028 703.379 495.992L699.358 495.827V510.94H694.645ZM699.358 473.482V492.205C701.296 492.3 704.344 492.348 708.501 492.348C711.923 492.348 714.252 491.419 715.486 489.56C716.546 487.936 717.076 485.093 717.076 481.033C717.076 477.623 716.288 475.392 714.714 474.338C713.79 473.716 712.779 473.368 711.681 473.295C710.583 473.222 709.622 473.186 708.796 473.186C707.971 473.186 707.176 473.189 706.411 473.196C705.646 473.204 704.885 473.218 704.128 473.24C703.364 473.255 702.595 473.281 701.823 473.317L699.358 473.482ZM733.102 510.94V469.948H737.781V510.94H733.102ZM761.325 510.962L746.731 469.948H751.842L762.54 501.161L763.983 506.649L765.562 501.161L776.022 469.948H781.065L766.788 510.962H761.325ZM784.143 510.94L798.033 469.948H804.495L819.328 510.94H814.308L810.095 498.911H793.013L789.015 510.94H784.143ZM794.285 495.081H808.766L801.27 473.559L800.418 476.621L794.285 495.081ZM832.242 510.94V473.91H820.93V469.948H848.665V473.91H836.955V510.94H832.242ZM855.537 510.94V469.948H879.569V473.91H860.25V488.057H875.833V491.997H860.25V507H880.319V510.94H855.537ZM902.807 510.94V469.948H907.52V507H924.318V510.94H902.807ZM931.86 510.94V469.948H936.55V510.94H931.86ZM947.17 510.94L953.712 469.948H960.946L970.6 500.217L972.236 506.758L973.815 500.195L983.128 469.948H990.033L996.882 510.94H992.169L987.012 479.968L986.24 472.736L984.548 480.023L974.973 510.918H969.51L959.527 479.858L957.562 472.736L956.619 479.913L951.94 510.94H947.17ZM1007.67 510.94V469.948H1012.35V510.94H1007.67ZM1031.13 510.94V473.91H1019.81V469.948H1047.54V473.91H1035.84V510.94H1031.13ZM1054.41 510.94V469.948H1078.45V473.91H1059.12V488.057H1074.7V491.997H1059.12V507H1079.2V510.94H1054.41ZM1087.54 510.94V470.189C1087.54 470.189 1088.93 470.091 1091.71 469.893C1095.86 469.571 1099.18 469.41 1101.66 469.41C1104.13 469.41 1106.11 469.502 1107.6 469.684C1109.07 469.875 1110.37 470.197 1111.49 470.65C1112.6 471.111 1113.55 471.733 1114.34 472.516C1115.13 473.299 1115.77 474.298 1116.27 475.512C1117.21 477.788 1117.68 481.164 1117.68 485.642V489.802C1117.68 495.106 1117.28 499.134 1116.47 501.885C1115.52 505.061 1113.83 507.347 1111.39 508.745C1108.88 510.208 1105.19 510.94 1100.33 510.94H1087.54ZM1111.08 476.456C1110.42 475.439 1109.45 474.671 1108.2 474.151C1106.94 473.632 1105.01 473.372 1102.41 473.372C1099.8 473.372 1096.42 473.526 1092.26 473.833V507.11H1101.08C1104.51 507.11 1107.07 506.564 1108.73 505.474C1110.36 504.421 1111.45 502.606 1112 500.031C1112.48 497.923 1112.72 494.514 1112.72 489.802V485.62C1112.72 481.172 1112.17 478.117 1111.08 476.456Z" fill="#103756"/>
</g>
</g>
</g>
</g>
</g>
</g>
</g>
</g>
</g>
</g>
<defs>
<clipPath id="clip0_640_3308">
<rect width="864" height="540" fill="white" transform="translate(255 114)"/>
</clipPath>
<clipPath id="clip1_640_3308">
<rect width="861.933" height="540.437" fill="white" transform="translate(256.034 113.781)"/>
</clipPath>
<clipPath id="clip2_640_3308">
<rect width="861.933" height="540.437" fill="white" transform="translate(256.034 113.781)"/>
</clipPath>
<clipPath id="clip3_640_3308">
<rect width="861.933" height="259.09" fill="white" transform="translate(256.034 254.455)"/>
</clipPath>
<clipPath id="clip4_640_3308">
<rect width="861.933" height="259.09" fill="white" transform="translate(256.034 265.599)"/>
</clipPath>
<clipPath id="clip5_640_3308">
<rect width="861.933" height="259.09" fill="white" transform="translate(256.034 265.599)"/>
</clipPath>
<clipPath id="clip6_640_3308">
<rect width="861.933" height="259.09" fill="white" transform="translate(256.034 265.599)"/>
</clipPath>
<clipPath id="clip7_640_3308">
<rect width="861.933" height="259.09" fill="white" transform="translate(256.034 265.599)"/>
</clipPath>
<clipPath id="clip8_640_3308">
<rect width="861.933" height="180.799" fill="white" transform="translate(256.034 265.599)"/>
</clipPath>
<clipPath id="clip9_640_3308">
<rect width="861.933" height="180.799" fill="white" transform="translate(256.034 265.599)"/>
</clipPath>
<clipPath id="clip10_640_3308">
<rect width="725.76" height="42.1004" fill="white" transform="translate(392.006 469.377)"/>
</clipPath>
<clipPath id="clip11_640_3308">
<rect width="725.76" height="42.1004" fill="white" transform="translate(392.006 469.377)"/>
</clipPath>
</defs>
</svg>
