<svg width="136" height="221" viewBox="0 0 136 221" fill="none" xmlns="http://www.w3.org/2000/svg">
<path d="M90.5778 185.134L82.6998 185.131" stroke="#BAE4D0" stroke-opacity="0.56" stroke-width="2" stroke-linecap="round"/>
<path d="M116.782 198.021L108.449 201.654" stroke="#BAE4D0" stroke-opacity="0.56" stroke-width="2" stroke-linecap="round"/>
<path d="M138.29 213.025L129.957 216.658" stroke="#BAE4D0" stroke-opacity="0.56" stroke-width="2" stroke-linecap="round"/>
<path d="M57.4077 161.034L58.0114 168.004" stroke="#BAE4D0" stroke-opacity="0.56" stroke-width="2" stroke-linecap="round"/>
<path d="M13.3315 129.659L9.39057 135.567" stroke="#BAE4D0" stroke-opacity="0.56" stroke-width="2" stroke-linecap="round"/>
<path d="M35.9004 144.059L31.3531 150.875" stroke="#BAE4D0" stroke-opacity="0.56" stroke-width="2" stroke-linecap="round"/>
<path d="M83.9727 4.08984L97.6032 17.1234" stroke="#BAE4D0" stroke-opacity="0.56" stroke-width="2" stroke-linecap="round"/>
<path d="M108.661 21.217C109.388 21.7021 117.849 30.4111 121.989 34.705" stroke="#BAE4D0" stroke-opacity="0.56" stroke-width="2" stroke-linecap="round"/>
<path d="M134.562 38.4973C135.289 38.9824 141.629 47.5897 144.708 51.8327" stroke="#BAE4D0" stroke-opacity="0.56" stroke-width="2" stroke-linecap="round"/>
<path d="M65.8174 32.2874L82.5166 41.0511" stroke="#BAE4D0" stroke-opacity="0.56" stroke-width="2" stroke-linecap="round"/>
<path d="M49.5581 60.5952L65.4226 63.7889" stroke="#BAE4D0" stroke-opacity="0.56" stroke-width="2" stroke-linecap="round"/>
<path d="M33.2734 86.6545L49.4463 86.0886" stroke="#BAE4D0" stroke-opacity="0.56" stroke-width="2" stroke-linecap="round"/>
<path d="M57.9253 103.172L74.0982 102.606" stroke="#BAE4D0" stroke-opacity="0.56" stroke-width="2" stroke-linecap="round"/>
<path d="M110.837 128.389L117.19 143.273" stroke="#BAE4D0" stroke-opacity="0.56" stroke-width="2" stroke-linecap="round"/>
<path d="M139.184 143.361L137.722 159.477" stroke="#BAE4D0" stroke-opacity="0.56" stroke-width="2" stroke-linecap="round"/>
<path d="M126.562 169.085L120.576 184.12" stroke="#BAE4D0" stroke-opacity="0.56" stroke-width="2" stroke-linecap="round"/>
<path d="M99.7842 152.533L100.935 168.675" stroke="#BAE4D0" stroke-opacity="0.56" stroke-width="2" stroke-linecap="round"/>
<path d="M80.8062 143.878L64.629 144.304" stroke="#BAE4D0" stroke-opacity="0.56" stroke-width="2" stroke-linecap="round"/>
<path d="M55.4902 125.23L41.6043 133.54" stroke="#BAE4D0" stroke-opacity="0.56" stroke-width="2" stroke-linecap="round"/>
<path d="M80.7666 116.178L94.8539 124.143" stroke="#BAE4D0" stroke-opacity="0.56" stroke-width="2" stroke-linecap="round"/>
<path d="M16.7446 116.974L30.6029 108.617" stroke="#BAE4D0" stroke-opacity="0.56" stroke-width="2" stroke-linecap="round"/>
<path d="M90.8604 47.8999C91.6586 48.2557 101.464 55.4173 106.267 58.9536" stroke="#BAE4D0" stroke-opacity="0.56" stroke-width="2" stroke-linecap="round"/>
<path d="M73.9009 75.2883C74.766 75.4125 86.1551 79.6222 91.7415 81.7115" stroke="#BAE4D0" stroke-opacity="0.56" stroke-width="2" stroke-linecap="round"/>
<path d="M116.925 61.9805C117.721 62.3418 125.367 69.813 129.09 73.5034" stroke="#BAE4D0" stroke-opacity="0.56" stroke-width="2" stroke-linecap="round"/>
<path d="M99.3423 88.3352C100.138 88.6965 107.784 96.1677 111.508 99.8581" stroke="#BAE4D0" stroke-opacity="0.56" stroke-width="2" stroke-linecap="round"/>
<path d="M127.723 102.882L135.14 120.307" stroke="#BAE4D0" stroke-opacity="0.56" stroke-width="2" stroke-linecap="round"/>
</svg>
