<svg width="24" height="25" viewBox="0 0 24 25" fill="none" xmlns="http://www.w3.org/2000/svg">
<path d="M18 8.38451C19.6569 8.38451 21 7.04826 21 5.3999C21 3.75154 19.6569 2.41528 18 2.41528C16.3431 2.41528 15 3.75154 15 5.3999C15 7.04826 16.3431 8.38451 18 8.38451Z" stroke="#999999" stroke-width="2" stroke-linecap="round" stroke-linejoin="round"/>
<path d="M6 15.3486C7.65685 15.3486 9 14.0124 9 12.364C9 10.7157 7.65685 9.37939 6 9.37939C4.34315 9.37939 3 10.7157 3 12.364C3 14.0124 4.34315 15.3486 6 15.3486Z" stroke="#999999" stroke-width="2" stroke-linecap="round" stroke-linejoin="round"/>
<path d="M18 22.3127C19.6569 22.3127 21 20.9765 21 19.3281C21 17.6798 19.6569 16.3435 18 16.3435C16.3431 16.3435 15 17.6798 15 19.3281C15 20.9765 16.3431 22.3127 18 22.3127Z" stroke="#999999" stroke-width="2" stroke-linecap="round" stroke-linejoin="round"/>
<path d="M8.59009 13.8662L15.4201 17.8258" stroke="#999999" stroke-width="2" stroke-linecap="round" stroke-linejoin="round"/>
<path d="M15.4101 6.9021L8.59009 10.8617" stroke="#999999" stroke-width="2" stroke-linecap="round" stroke-linejoin="round"/>
</svg>
