<svg width="169" height="25" viewBox="0 0 169 25" fill="none" xmlns="http://www.w3.org/2000/svg">
<path d="M12.5 2.08337L15.7188 8.60421L22.9167 9.65629L17.7084 14.7292L18.9375 21.8959L12.5 18.5105L6.06254 21.8959L7.29171 14.7292L2.08337 9.65629L9.28129 8.60421L12.5 2.08337Z" fill="#F8B64C"/>
<path d="M48.5 2.08337L51.7188 8.60421L58.9167 9.65629L53.7084 14.7292L54.9375 21.8959L48.5 18.5105L42.0625 21.8959L43.2917 14.7292L38.0834 9.65629L45.2813 8.60421L48.5 2.08337Z" fill="#F8B64C"/>
<path d="M84.4999 2.08337L87.7187 8.60421L94.9166 9.65629L89.7083 14.7292L90.9374 21.8959L84.4999 18.5105L78.0624 21.8959L79.2916 14.7292L74.0833 9.65629L81.2812 8.60421L84.4999 2.08337Z" fill="#F8B64C"/>
<path d="M120.5 2.08337L123.719 8.60421L130.917 9.65629L125.708 14.7292L126.937 21.8959L120.5 18.5105L114.062 21.8959L115.292 14.7292L110.083 9.65629L117.281 8.60421L120.5 2.08337Z" fill="#F8B64C"/>
<path d="M156.5 2.08337L159.719 8.60421L166.917 9.65629L161.708 14.7292L162.937 21.8959L156.5 18.5105L150.062 21.8959L151.292 14.7292L146.083 9.65629L153.281 8.60421L156.5 2.08337Z" fill="#F7C36E"/>
</svg>
