<svg width="29" height="28" viewBox="0 0 29 28" fill="none" xmlns="http://www.w3.org/2000/svg">
<path d="M26.1385 4.66553C25.2272 5.20569 23.3989 5.94186 22.324 6.15419C22.2925 6.16236 22.2668 6.17286 22.2364 6.18103C21.2866 5.24536 19.9851 4.66553 18.5446 4.66553C15.6415 4.66553 13.2874 7.01636 13.2874 9.91553C13.2874 10.0684 13.2745 10.3495 13.2874 10.4989C9.37012 10.4989 6.38866 8.45019 4.2507 5.83219C4.01822 6.41553 3.91658 7.33719 3.91658 8.20286C3.91658 9.83736 5.19584 11.4427 7.18777 12.4379C6.82093 12.5324 6.4167 12.6 5.99612 12.6C5.31735 12.6 4.59885 12.4215 3.94111 11.8802C3.94111 11.9 3.94111 11.9187 3.94111 11.9397C3.94111 14.224 6.3688 15.7792 8.52779 16.212C8.08968 16.4699 7.20646 16.4955 6.77536 16.4955C6.47161 16.4955 5.39679 16.3567 5.10939 16.303C5.70989 18.1755 7.87589 19.2279 9.94024 19.2652C8.32567 20.5299 7.20529 20.9989 3.89905 20.9989H2.77283C4.86172 22.3359 7.5219 23.3334 10.1879 23.3334C18.8683 23.3334 23.8019 16.7265 23.8019 10.4989C23.8019 10.3985 23.7996 10.1885 23.7961 9.97736C23.7961 9.95636 23.8019 9.93653 23.8019 9.91553C23.8019 9.88403 23.7926 9.85369 23.7926 9.82219C23.7891 9.66353 23.7856 9.51536 23.7821 9.43836C24.705 8.77336 25.5053 7.94386 26.1385 6.99886C25.2915 7.37453 24.3825 7.62653 23.4281 7.74086C24.4024 7.15753 25.7868 5.76686 26.1385 4.66553Z" fill="#F5F5F5"/>
</svg>
