<svg width="16" height="12" viewBox="0 0 16 12" fill="none" xmlns="http://www.w3.org/2000/svg">
<path d="M15.5 -0.000732422C14.915 0.346518 13.7413 0.819768 13.0513 0.956268C13.031 0.961518 13.0145 0.968267 12.995 0.973517C12.3853 0.372017 11.5498 -0.000732422 10.625 -0.000732422C8.76125 -0.000732422 7.25 1.51052 7.25 3.37427C7.25 3.47252 7.24175 3.65327 7.25 3.74927C4.73525 3.74927 2.82125 2.43227 1.44875 0.749268C1.2995 1.12427 1.23425 1.71677 1.23425 2.27327C1.23425 3.32402 2.0555 4.35602 3.33425 4.99577C3.09875 5.05652 2.83925 5.10002 2.56925 5.10002C2.1335 5.10002 1.67225 4.98527 1.25 4.63727C1.25 4.65002 1.25 4.66202 1.25 4.67552C1.25 6.14402 2.8085 7.14377 4.1945 7.42202C3.91325 7.58777 3.34625 7.60427 3.0695 7.60427C2.8745 7.60427 2.1845 7.51502 2 7.48052C2.3855 8.68427 3.776 9.36077 5.10125 9.38477C4.06475 10.1978 3.3455 10.4993 1.223 10.4993H0.5C1.841 11.3588 3.54875 12 5.26025 12C10.8328 12 14 7.75277 14 3.74927C14 3.68477 13.9985 3.54977 13.9963 3.41402C13.9963 3.40052 14 3.38777 14 3.37427C14 3.35402 13.994 3.33452 13.994 3.31427C13.9918 3.21227 13.9895 3.11702 13.9872 3.06752C14.5798 2.64002 15.0935 2.10677 15.5 1.49927C14.9563 1.74077 14.3728 1.90277 13.76 1.97627C14.3855 1.60127 15.2743 0.707268 15.5 -0.000732422Z" fill="#F5F5F5"/>
</svg>
