<svg version="1.2" xmlns="http://www.w3.org/2000/svg" viewBox="0 0 3110 735" width="3110" height="735">
	<title>Vardan-logo-svg</title>
	<defs>
		<linearGradient id="g1" x1="495.5" y1="-2" x2="5" y2="453.4" gradientUnits="userSpaceOnUse">
			<stop offset=".1" stop-color="#2dcfe7"/>
			<stop offset=".8" stop-color="#0c8799"/>
		</linearGradient>
		<linearGradient id="g2" x1="553.5" y1="307.7" x2="286.7" y2="731.2" gradientUnits="userSpaceOnUse">
			<stop offset="0" stop-color="#2dcfe7"/>
			<stop offset="1" stop-color="#0c8799"/>
		</linearGradient>
	</defs>
	<style>
		.s0 { fill: url(#g1) } 
		.s1 { fill: url(#g2) } 
		.s2 { fill: #137887 } 
		.s3 { fill: #535353 } 
	</style>
	<path id="Layer" class="s0" d="m146.3 546.7c-0.7-0.6-1.4-1.2-2.1-1.8-22-21.6-36.2-62.5-48.3-89.9-29.2-66.3-49-136.8-60.2-208.4-5.1-32.1-9.9-65-9.7-97.9 0.2-39 6.5-82.5 31.6-113.9 23.7-29.4 61.5-39.6 97.9-36.2 53.6 5.1 106.4 34.7 151.2 62.3 42 25.8 80.5 57.2 133 59.2 16.1 0.7 32.3-1.8 47.1-8.3-51.4 4.5-105.8-26.4-141.4-60.6 18.1-19.7 52.7-36.1 78.3-43 52.8-14.2 120.4-9.4 146 46.3 25.7 56 17.9 128.7 7.6 187.3-11.9 66.8-29 135.1-52.2 198.9-7.4 20.6-22.5 89.2-47.9 92.5-8.5 1.1-23.9-7.4-32-10.1-10.9-3.6-21.7-7.1-32.9-9.4-5.5-1.1-66.1-4.3-63.4 7.1-5-21-13.9-47.9-28.9-64-37.1-40-52.5 64.3-59.1 79.9-14.1 33.7-89.9 30.2-114.6 10z"/>
	<path id="Layer" class="s1" d="m353.5 634c15.4-34.4-46.1-10.4-46.1-10.4-34.4 13.3-75.8 19.7-110.1 2.5-13.2-6.6-34.5-21-38-36.3-7-30.2 41-10.1 52.5-9.5 16.2 0.8 32.3-2 47.9-6.2 31.3-8.6 60.6-23.2 92.3-30.4 19.7-4.4 40.2-4.5 60.1-1.8 35 4.8 66.8 25.6 102.7 22 34-3.5 64-22.3 93.4-38 126.2-67.5 175.8-251.9 175.8-251.9-6 67.4-26.1 133.3-55.5 194.2-40.1 82.7-102.4 153.1-181.2 201.4-33.7 20.7-69.6 38.2-106.7 52.1q-8.5 3.1-17 5.8c-59 18.5-124 22.1-184.2 7.4-40.5-9.9-75.7-31.7-110-54.7-37.9-25.4-76.2-50.5-111.3-79.8-14-11.8-10.8-17.2-10.8-17.2 3.4-5.8 11.4-7 17.3-7.2 36.2-1.5 77 25.8 106.8 43.7 62.4 37.5 134 62.1 203.2 27.8 18.3-9 19.1-13.5 18.9-13.5z"/>
	<path id="Layer" class="s2" d="m1013.1 185.4l-54.8 149.7h-36.5l-54.8-149.7h32.1l41.2 119 40.9-119z"/>
	<path id="Layer" fill-rule="evenodd" class="s2" d="m1023.4 275.3q0-18 7-32 7.3-13.9 19.5-21.4 12.4-7.5 27.7-7.5 13.2 0 23.1 5.3 10.1 5.4 16.1 13.5v-16.9h30.2v118.8h-30.2v-17.4q-5.8 8.4-16.1 13.9-10.1 5.4-23.4 5.4-15 0-27.4-7.7-12.2-7.7-19.5-21.7-7-14.1-7-32.3zm93.4 0.4q0-10.9-4.3-18.7-4.3-7.9-11.6-12-7.3-4.3-15.6-4.3-8.4 0-15.5 4.1-7 4.1-11.5 12-4.3 7.7-4.3 18.5 0 10.7 4.3 18.8 4.5 8 11.5 12.2 7.3 4.3 15.5 4.3 8.3 0 15.6-4 7.3-4.3 11.6-12 4.3-8 4.3-18.9z"/>
	<path id="Layer" class="s2" d="m1206.3 234.7q5.7-9.4 14.9-14.7 9.5-5.4 21.5-5.4v31.5h-8q-14.1 0-21.4 6.7-7 6.6-7 23.1v59.2h-30v-118.8h30z"/>
	<path id="Layer" fill-rule="evenodd" class="s2" d="m1255.2 275.3q0-18 7-32 7.3-13.9 19.7-21.4 12.5-7.5 27.7-7.5 11.5 0 22 5.1 10.5 5 16.7 13.3v-56.4h30.5v158.7h-30.5v-17.6q-5.5 8.8-15.6 14.1-10.1 5.4-23.4 5.4-14.9 0-27.4-7.7-12.4-7.7-19.7-21.7-7-14.1-7-32.3zm93.3 0.4q0.1-10.9-4.2-18.7-4.3-7.9-11.6-12-7.3-4.3-15.6-4.3-8.4 0-15.5 4.1-7 4.1-11.5 12-4.3 7.7-4.3 18.5 0 10.7 4.3 18.8 4.5 8 11.5 12.2 7.3 4.3 15.5 4.3 8.3 0 15.6-4 7.3-4.3 11.6-12 4.3-8 4.2-18.9z"/>
	<path id="Layer" fill-rule="evenodd" class="s2" d="m1400.3 275.3q0-18 7.1-32 7.3-13.9 19.5-21.4 12.4-7.5 27.6-7.5 13.3 0 23.2 5.3 10 5.4 16 13.5v-16.9h30.2v118.8h-30.2v-17.4q-5.8 8.4-16 13.9-10.1 5.4-23.4 5.4-15 0-27.4-7.7-12.2-7.7-19.5-21.7-7.1-14.1-7.1-32.3zm93.4 0.4q0-10.9-4.2-18.7-4.3-7.9-11.6-12-7.3-4.3-15.6-4.3-8.4 0-15.5 4.1-7 4.1-11.5 12-4.3 7.7-4.3 18.5 0 10.7 4.3 18.8 4.5 8 11.5 12.2 7.3 4.3 15.5 4.3 8.3 0 15.6-4 7.3-4.3 11.6-12 4.2-8 4.2-18.9z"/>
	<path id="Layer" class="s2" d="m1619 214.6q21.2 0 34.3 13.5 13 13.3 13 37.3v69.7h-30v-65.6q0-14.2-7-21.7-7.1-7.7-19.3-7.7-12.4 0-19.7 7.7-7.1 7.5-7.1 21.7v65.6h-30v-118.8h30v14.8q6-7.7 15.2-12 9.5-4.5 20.6-4.5z"/>
	<path id="Layer" fill-rule="evenodd" class="s2" d="m1798.2 185.4q23.5 0 41.3 9.3 18 9.2 27.7 26.3 9.8 17 9.8 39.5 0 22.5-9.8 39.4-9.7 16.7-27.7 26-17.8 9.2-41.3 9.2h-52.3v-149.7zm-1.1 124.2q23.6 0 36.4-12.9 12.9-12.9 12.9-36.2 0-23.4-12.9-36.5-12.8-13.3-36.4-13.3h-21.2v98.9z"/>
	<path id="Layer" fill-rule="evenodd" class="s2" d="m2009.8 273.1q0 6.4-0.9 11.6h-86.7q1 12.9 9 20.1 7.9 7.3 19.5 7.3 16.7 0 23.7-14.3h32.4q-5.2 17.1-19.7 28.3-14.6 10.9-35.8 10.9-17.1 0-30.9-7.5-13.4-7.7-21.2-21.7-7.5-13.9-7.5-32.1 0-18.4 7.5-32.4 7.5-13.9 21-21.4 13.5-7.5 31.1-7.5 16.9 0 30.2 7.3 13.5 7.3 20.8 20.8 7.5 13.3 7.5 30.6zm-31.1-8.6q-0.2-11.5-8.3-18.4-8.2-7.1-20-7.1-11.1 0-18.8 6.9-7.5 6.6-9.2 18.6z"/>
	<path id="Layer" class="s2" d="m2097.4 214.6q21.2 0 34.3 13.5 13.1 13.3 13.1 37.3v69.7h-30v-65.6q0-14.2-7.1-21.7-7.1-7.7-19.3-7.7-12.4 0-19.7 7.7-7 7.5-7 21.7v65.6h-30v-118.8h30v14.8q6-7.7 15.2-12 9.4-4.5 20.5-4.5z"/>
	<path id="Layer" class="s2" d="m2208.2 241v57.4q0 6 2.8 8.8 3 2.6 9.9 2.6h13.9v25.3h-18.9q-37.9 0-37.9-36.9v-57.2h-14.1v-24.7h14.1v-29.4h30.2v29.4h26.6v24.7z"/>
	<path id="Layer" fill-rule="evenodd" class="s2" d="m2248.6 275.3q0-18 7.1-32 7.3-13.9 19.5-21.4 12.4-7.5 27.6-7.5 13.3 0 23.2 5.3 10 5.4 16 13.5v-16.9h30.2v118.8h-30.2v-17.4q-5.8 8.4-16 13.9-10.1 5.4-23.4 5.4-15 0-27.4-7.7-12.2-7.7-19.5-21.7-7.1-14.1-7.1-32.3zm93.4 0.4q0-10.9-4.3-18.7-4.2-7.9-11.5-12-7.3-4.3-15.7-4.3-8.3 0-15.4 4.1-7.1 4.1-11.5 12-4.3 7.7-4.3 18.5 0 10.7 4.3 18.8 4.4 8 11.5 12.2 7.3 4.3 15.4 4.3 8.4 0 15.7-4 7.3-4.3 11.5-12 4.3-8 4.3-18.9z"/>
	<path id="Layer" class="s2" d="m2431.5 176.4v158.7h-30v-158.7z"/>
	<path id="Layer" class="s2" d="m2504.9 260q0-22 9.9-39.4 10-17.6 27.2-27.2 17.3-9.9 38.7-9.9 25.1 0 43.9 12.9 18.9 12.8 26.4 35.6h-34.5q-5.1-10.8-14.6-16.1-9.2-5.4-21.4-5.4-13 0-23.3 6.2-10.1 6-15.9 17.2-5.5 11.1-5.6 26.1 0.1 14.8 5.6 26.2 5.8 11.1 15.9 17.4 10.3 6 23.3 6 12.2 0 21.4-5.4 9.5-5.6 14.6-16.3h34.5q-7.5 22.9-26.4 35.8-18.6 12.7-43.9 12.7-21.4 0-38.7-9.7-17.2-9.9-27.2-27.2-9.9-17.4-9.9-39.5z"/>
	<path id="Layer" class="s2" d="m2706.6 176.4v158.7h-30v-158.7z"/>
	<path id="Layer" class="s2" d="m2751.4 202.2q-7.9 0-13.2-5-5.2-5.1-5.2-12.6 0-7.5 5.2-12.5 5.3-5.1 13.2-5.1 8 0 13.1 5.1 5.4 5 5.4 12.5 0 7.5-5.4 12.6-5.1 5-13.1 5zm14.8 14.1v118.8h-30v-118.8z"/>
	<path id="Layer" class="s2" d="m2861.6 214.6q21.2 0 34.3 13.5 13.1 13.3 13.1 37.3v69.7h-30v-65.6q0-14.2-7.1-21.7-7.1-7.7-19.3-7.7-12.4 0-19.7 7.7-7 7.5-7 21.7v65.6h-30v-118.8h30v14.8q6-7.7 15.2-12 9.4-4.5 20.5-4.5z"/>
	<path id="Layer" class="s2" d="m2952.7 202.2q-7.9 0-13.3-5-5.1-5.1-5.1-12.6 0-7.5 5.1-12.5 5.4-5.1 13.3-5.1 7.9 0 13.1 5.1 5.3 5 5.3 12.5 0 7.5-5.3 12.6-5.2 5-13.1 5zm14.8 14.1v118.8h-30v-118.8z"/>
	<path id="Layer" class="s2" d="m2989.4 275.7q0-18.4 7.5-32.2 7.5-13.9 20.8-21.4 13.2-7.7 30.4-7.7 22.1 0 36.4 11.1 14.6 11 19.5 30.9h-32.3q-2.6-7.7-8.8-12-6-4.5-15-4.5-12.9 0-20.4 9.4-7.5 9.2-7.5 26.4 0 16.9 7.5 26.4 7.5 9.2 20.4 9.2 18.2 0 23.8-16.3h32.3q-4.9 19.3-19.5 30.6-14.6 11.4-36.4 11.4-17.2 0-30.4-7.5-13.3-7.7-20.8-21.4-7.5-14-7.5-32.4z"/>
	<path id="Layer" fill-rule="evenodd" class="s3" d="m992 625.9l-15.8-15.8q-9.2 9.2-20.1 13.8-10.8 4.4-24.2 4.4-13.6 0-24-4.8-10.5-4.8-16.2-13.6-5.7-9-5.7-20.7 0-13.3 7.5-23.5 7.6-10.5 22.4-16.6-5.3-6.4-7.5-11.9-2.2-5.7-2.2-12.5 0-8.4 4.2-15.1 4.4-6.6 12.5-10.4 8.1-3.9 18.7-3.9 10.9 0 18.4 4.2 7.7 4.1 11.4 11.3 3.8 7.1 3.1 15.9h-20.9q0.2-6.8-3.3-10.4-3.5-3.9-9.6-3.9-6 0-9.9 3.7-3.7 3.5-3.7 8.6 0 5 2.8 9.9 2.9 4.8 10.1 12.5l33.8 33.6 13-21.5h22.6l-16.5 28.3-4.6 7.5 31 30.9zm-60-15.4q17.2 0 30.4-14.2l-33.7-33.9q-21.7 8.6-21.7 26 0 9.4 7 15.8 6.9 6.3 18 6.3z"/>
	<path id="Layer" class="s3" d="m1101.7 498.3v127.6h-21v-127.6z"/>
	<path id="Layer" class="s3" d="m1251.6 523.1q12 0 21.3 4.9 9.6 5 14.9 14.7 5.5 9.7 5.5 23.5v59.7h-20.7v-56.6q0-13.6-6.8-20.7-6.8-7.4-18.6-7.4-11.7 0-18.7 7.4-6.8 7.1-6.8 20.7v56.6h-20.7v-56.6q-0.1-13.6-6.8-20.7-6.8-7.4-18.6-7.4-11.7 0-18.7 7.4-6.8 7.1-6.8 20.7v56.6h-20.9v-101.2h20.9v11.6q5.1-6.3 13-9.8 7.9-3.4 16.9-3.4 12.1 0 21.7 5.1 9.5 5.1 14.7 14.9 4.6-9.2 14.3-14.5 9.7-5.5 20.9-5.5z"/>
	<path id="Layer" fill-rule="evenodd" class="s3" d="m1340.9 539.6q5.3-7 14.5-11.8 9.2-4.7 20.7-4.7 13.3 0 24.1 6.6 11 6.4 17.2 18.1 6.3 11.8 6.3 27 0 15.3-6.3 27.4-6.2 11.9-17.2 18.7-10.8 6.6-24.1 6.6-11.5 0-20.5-4.5-9-4.8-14.7-11.8v62.8h-21v-149.3h21zm61.5 35.3q0-10.5-4.4-18-4.2-7.7-11.4-11.6-7-4-15.1-4-7.9 0-15 4-7 4-11.4 11.8-4.2 7.7-4.2 18.1 0 10.5 4.2 18.4 4.4 7.7 11.4 11.7 7.1 4.1 15 4.1 8.1 0 15.1-4.1 7.2-4.2 11.4-12.1 4.4-7.9 4.4-18.3z"/>
	<path id="Layer" class="s3" d="m1465.3 490v135.9h-20.9v-135.9z"/>
	<path id="Layer" fill-rule="evenodd" class="s3" d="m1485.8 574.8q0-15.2 6.3-27 6.4-11.7 17.2-18.1 11.1-6.6 24.3-6.6 11.9 0 20.7 4.7 9 4.6 14.3 11.6v-14.7h21.2v101.2h-21.2v-15.1q-5.3 7.2-14.5 12-9.1 4.7-20.9 4.7-13 0-23.9-6.6-10.8-6.8-17.2-18.7-6.3-12.1-6.3-27.4zm82.8 0.4q0-10.5-4.4-18.2-4.2-7.7-11.2-11.7-6.9-4.1-15-4.1-8.1 0-15.1 4.1-7 3.8-11.4 11.5-4.2 7.6-4.2 18 0 10.5 4.2 18.4 4.4 7.9 11.4 12.1 7.2 4.1 15.1 4.1 8.1 0 15-4.1 7-4 11.2-11.7 4.4-7.9 4.4-18.4z"/>
	<path id="Layer" class="s3" d="m1668.3 523.1q11.9 0 21.3 4.9 9.6 5 14.9 14.7 5.3 9.7 5.3 23.5v59.7h-20.8v-56.6q0.1-13.6-6.7-20.7-6.8-7.4-18.6-7.4-11.7 0-18.7 7.4-6.8 7.1-6.8 20.7v56.6h-20.9v-101.2h20.9v11.6q5.1-6.3 13-9.8 8.1-3.4 17.1-3.4z"/>
	<path id="Layer" class="s3" d="m1760.9 541.8v56q0 5.7 2.6 8.3 2.7 2.3 9.2 2.3h12.8v17.5h-16.5q-14.1 0-21.7-6.6-7.5-6.6-7.5-21.5v-56h-11.9v-17.1h11.9v-25.2h21.1v25.2h24.6v17.1z"/>
	<path id="Layer" class="s3" d="m1845.5 561.8q0-18.7 8.7-33.6 8.8-14.9 23.7-23.1 15-8.5 32.8-8.5 20.4 0 36.2 10.1 16 9.9 23.1 28.3h-25.1q-5-10.1-13.8-15.1-8.8-4.9-20.4-4.9-12.6 0-22.6 5.7-9.9 5.7-15.6 16.3-5.5 10.7-5.5 24.8 0 14.1 5.5 24.8 5.7 10.6 15.6 16.5 10 5.7 22.6 5.7 11.6 0 20.4-4.9 8.8-5 13.8-15.1h25.1q-7.1 18.4-23.1 28.3-15.8 9.9-36.2 9.9-18 0-32.8-8.3-14.9-8.4-23.7-23.3-8.7-14.9-8.7-33.6z"/>
	<path id="Layer" fill-rule="evenodd" class="s3" d="m2087.3 572.8q0 5.7-0.8 10.3h-77.3q0.9 12.1 9 19.5 8.1 7.3 19.9 7.3 16.9 0 23.8-14.1h22.6q-4.6 13.9-16.7 22.9-11.9 8.8-29.7 8.8-14.5 0-26.1-6.4-11.4-6.6-18-18.3-6.4-12-6.4-27.6 0-15.6 6.2-27.4 6.4-11.9 17.8-18.3 11.6-6.4 26.5-6.4 14.3 0 25.5 6.2 11.2 6.2 17.4 17.6 6.3 11.2 6.3 25.9zm-21.9-6.6q-0.2-11.6-8.2-18.5-8.1-7-20.1-7-10.8 0-18.5 7-7.7 6.8-9.2 18.5z"/>
	<path id="Layer" class="s3" d="m2158.9 523.1q12 0 21.3 4.9 9.6 5 14.9 14.7 5.3 9.7 5.3 23.5v59.7h-20.7v-56.6q0-13.6-6.8-20.7-6.8-7.4-18.6-7.4-11.7 0-18.7 7.4-6.8 7.1-6.8 20.7v56.6h-20.9v-101.2h20.9v11.6q5.1-6.3 13-9.8 8.1-3.4 17.1-3.4z"/>
	<path id="Layer" class="s3" d="m2251.5 541.8v56q0 5.7 2.6 8.3 2.8 2.3 9.2 2.3h12.9v17.5h-16.6q-14.1 0-21.7-6.6-7.5-6.6-7.5-21.5v-56h-11.9v-17.1h11.9v-25.2h21.1v25.2h24.7v17.1z"/>
	<path id="Layer" fill-rule="evenodd" class="s3" d="m2388.2 572.8q0 5.7-0.8 10.3h-77.3q0.9 12.1 9 19.5 8.1 7.3 19.9 7.3 16.9 0 23.8-14.1h22.6q-4.6 13.9-16.7 22.9-11.9 8.8-29.7 8.8-14.5 0-26.1-6.4-11.4-6.6-18-18.3-6.4-12-6.4-27.6 0-15.6 6.2-27.4 6.4-11.9 17.8-18.3 11.6-6.4 26.5-6.4 14.3 0 25.5 6.2 11.2 6.2 17.4 17.6 6.3 11.2 6.3 25.9zm-21.9-6.6q-0.2-11.6-8.2-18.5-8.1-7-20.1-7-10.8 0-18.5 7-7.7 6.8-9.2 18.5z"/>
	<path id="Layer" class="s3" d="m2429.7 539.4q4.6-7.7 12.1-11.9 7.7-4.4 18.2-4.4v21.6h-5.3q-12.3 0-18.8 6.3-6.2 6.2-6.2 21.6v53.3h-20.9v-101.2h20.9z"/>
</svg>