<svg width="30" height="30" viewBox="0 0 30 30" fill="none" xmlns="http://www.w3.org/2000/svg">
<path fill-rule="evenodd" clip-rule="evenodd" d="M27 14.2329C27 20.9889 21.5809 26.4658 14.896 26.4658C12.8474 26.4658 10.9176 25.9514 9.22621 25.0435L2 27.0003L3.95338 19.6326L4.11122 19.7921C3.26778 18.1241 2.79205 16.2346 2.79205 14.2329C2.79205 7.47685 8.21118 2 14.896 2C21.5809 2 27 7.47685 27 14.2329ZM21.366 19.4108V17.6429C21.3737 17.3539 21.2671 17.0723 21.0663 16.8518C20.8656 16.6312 20.5848 16.487 20.2774 16.4466C19.6697 16.372 19.0731 16.2336 18.4988 16.0341C18.2723 15.9549 18.0261 15.9377 17.7894 15.9847C17.5527 16.0317 17.3354 16.1409 17.1634 16.2993L16.3595 17.0477C14.775 16.2088 13.463 14.9873 12.562 13.512L13.3658 12.7636C13.536 12.6033 13.6532 12.401 13.7037 12.1807C13.7542 11.9603 13.7358 11.7311 13.6506 11.5201C13.4363 10.9855 13.2877 10.43 13.2076 9.86423C13.1646 9.58104 13.0125 9.32207 12.7796 9.13559C12.5467 8.9491 12.2489 8.84783 11.9417 8.85064H10.0429C9.86718 8.8508 9.69341 8.88502 9.53265 8.95113C9.3719 9.01724 9.22769 9.11379 9.10921 9.23464C8.99073 9.35548 8.90057 9.49798 8.84447 9.65304C8.78838 9.8081 8.76758 9.97234 8.7834 10.1353C8.99115 11.9568 9.65682 13.7071 10.7265 15.2445C11.6982 16.6683 12.9948 17.8755 14.5241 18.7803C16.1678 19.7727 18.0386 20.3923 19.9862 20.5894C20.1618 20.6042 20.3387 20.5846 20.5057 20.532C20.6727 20.4795 20.826 20.395 20.9559 20.284C21.0858 20.1731 21.1894 20.0381 21.26 19.8877C21.3306 19.7374 21.3667 19.5749 21.366 19.4108Z" fill="#31B2C7"/>
</svg>
