<svg width="29" height="28" viewBox="0 0 29 28" fill="none" xmlns="http://www.w3.org/2000/svg">
<path d="M25.7527 7.21708C25.484 6.21375 24.6919 5.42275 23.6871 5.15441C21.8646 4.66675 14.5582 4.66675 14.5582 4.66675C14.5582 4.66675 7.25175 4.66675 5.42923 5.15441C4.42451 5.42275 3.63241 6.21375 3.36371 7.21708C2.87537 9.03708 2.87537 14.0001 2.87537 14.0001C2.87537 14.0001 2.87537 18.9631 3.36371 20.7831C3.63241 21.7864 4.42451 22.5774 5.42923 22.8457C7.25175 23.3334 14.5582 23.3334 14.5582 23.3334C14.5582 23.3334 21.8646 23.3334 23.6871 22.8457C24.693 22.5774 25.484 21.7864 25.7527 20.7831C26.241 18.9631 26.241 14.0001 26.241 14.0001C26.241 14.0001 26.241 9.03708 25.7527 7.21708ZM12.2216 18.0414V9.95875L19.2313 14.0001L12.2216 18.0414Z" fill="#F5F5F5"/>
</svg>
