<svg width="543" height="500" viewBox="0 0 543 500" fill="none" xmlns="http://www.w3.org/2000/svg">
<path d="M109.519 363.687C109.065 363.304 108.61 362.921 108.203 362.514C93.8671 348.483 84.6289 321.905 76.8027 304.115C57.8238 260.991 44.9477 215.187 37.6481 168.663C34.3693 147.808 31.2102 126.378 31.3538 105.044C31.4974 79.6635 35.542 51.4096 51.9123 31.0093C67.3013 11.8541 91.8806 5.24555 115.527 7.49629C150.373 10.7766 184.669 30.0276 213.772 47.9377C241.104 64.7464 266.114 85.1228 300.242 86.4636C310.701 86.8707 321.208 85.2424 330.829 81.0283C297.418 83.9495 262.045 63.8605 238.926 41.6405C250.677 28.8544 273.198 18.1993 289.808 13.7217C324.152 4.47936 368.093 7.61602 384.702 43.7954C401.408 80.1663 396.382 127.432 389.633 165.503C381.926 208.961 370.797 253.305 355.743 294.824C350.909 308.185 341.096 352.745 324.606 354.924C319.054 355.666 309.098 350.087 303.785 348.339C296.748 346.041 289.688 343.742 282.412 342.257C278.822 341.539 239.452 339.456 241.199 346.878C237.968 333.183 232.201 315.751 222.46 305.264C198.287 279.285 188.331 347.07 184.047 357.222C174.833 379.107 125.602 376.832 109.519 363.687Z" fill="#31B2C7"/>
<path d="M231.945 429.222C186.924 451.474 140.416 435.538 99.8272 411.133C80.515 399.528 53.9668 381.75 30.4615 382.707C26.5799 382.875 21.4044 383.664 19.2001 387.397C19.2001 387.397 17.1395 390.914 26.2445 398.571C49.0069 417.665 73.9259 433.935 98.5573 450.469C120.841 465.423 143.699 479.588 170.055 486.025C209.159 495.572 251.425 493.227 289.738 481.215C293.452 480.043 297.142 478.775 300.784 477.411C324.912 468.39 348.226 457.049 370.174 443.578C421.353 412.161 461.894 366.437 487.939 312.648C507.06 273.12 520.07 230.267 524 186.456C524 186.456 491.773 306.331 409.756 350.166C390.636 360.383 371.132 372.61 349.064 374.859C325.679 377.228 305.025 363.709 282.286 360.598C269.348 358.828 256.05 358.876 243.255 361.771C222.625 366.413 203.552 375.936 183.21 381.487C173.098 384.262 162.652 386.033 152.109 385.53C144.633 385.172 113.437 372.083 117.965 391.68C120.265 401.633 134.115 411.037 142.669 415.32C164.976 426.494 191.86 422.331 214.215 413.645C214.215 413.645 254.229 398.092 244.213 420.416C244.309 420.416 243.806 423.359 231.945 429.222Z" fill="#31B2C7"/>
</svg>
